<svg width="56" height="56" viewBox="0 0 56 56" xmlns="http://www.w3.org/2000/svg"><path fill="#612F86" d="M0 0h56v56H0z"/><path d="M28 45a17 17 0 1 0 0-34 17 17 0 0 0 0 34Zm-8.29-16 2.32-5.42L24.36 29H19.7Zm-.85 2-.96 2.24c-.19.46-.63.76-1.12.76-.88 0-1.13-.77-.67-1.73L20.62 22c.27-.6.85-.99 1.5-.99s1.24.4 1.5 1l4.33 10.18c.37.84.35 1.82-.56 1.82-.63 0-1.02-.3-1.21-.77L25.22 31h-6.36ZM29 29.58V22c0-.57.26-1 1-1s1 .4 1 1v7.68c0 1.59.87 2.32 2.5 2.32s2.5-.73 2.5-2.32V22c0-.66.33-1 1-1 .67 0 1 .34 1 1v7.58c0 2.44-1.5 4.42-4 4.42h-1c-2.5 0-4-1.98-4-4.42Z" fill="#F56819"/></svg>