<svg width="56" height="56" xmlns="http://www.w3.org/2000/svg"><path fill="#024176" d="M0 0h56v56H0z"/><path d="M27.532 12.012C18.921 12.269 12 19.314 12 27.986c0 8.839 7.163 16 15.992 16 2.926 0 10.872-1.225 14.616-9.487a13.759 13.759 0 01-5.197 1.015c-7.625 0-13.786-4.94-13.796-12.563-.008-3.917 1.177-7.068 2.99-9.392.368-.473.973-1.135 1.387-1.557l-.46.01z" fill="url(#paint0_linear)"/><path d="M29.427 13.558c2.399 3.201 2.955 6.262 2.955 9.405 0 7.622-6.177 12.564-13.796 12.564-1.837 0-3.587-.363-5.193-1.014C17.207 43.01 25.074 44 28 44c8.835 0 16-7.163 16-16 0-8.676-6.922-15.72-15.537-15.978-.022 0-.446-.02-.471-.022.415.423 1.077 1.074 1.435 1.558z" fill="url(#paint1_linear)"/><path d="M26.112 13.909c-1.913 2.317-3.129 5.34-3.112 8.972.017 3.987 1.959 7.313 5.013 9.51 3.035-2.197 5.045-5.459 4.986-9.438-.04-2.98-.358-5.765-3.289-9.304-.466-.565-1.282-1.297-1.707-1.649-.05 0-1.145 1.002-1.891 1.909z" fill="#fff"/><defs><linearGradient id="paint0_linear" x1="11.941" y1="13.171" x2="31.902" y2="37.234" gradientUnits="userSpaceOnUse"><stop stop-color="#EF3B23"/><stop offset="1" stop-color="#8B131E"/></linearGradient><linearGradient id="paint1_linear" x1="12.18" y1="27.999" x2="38.98" y2="27.999" gradientUnits="userSpaceOnUse"><stop stop-color="#B7212F"/><stop offset="1" stop-color="#EF3B23"/></linearGradient></defs></svg>