<svg xmlns="http://www.w3.org/2000/svg" width="56" height="56"><path fill="#0089CF" d="M0 0h56v56H0z"/><path fill-rule="evenodd" d="M45.5 28a17.5 17.5 0 11-35 0 17.5 17.5 0 0135 0zm.5 0a18 18 0 11-36 0 18 18 0 0136 0zm-2.67 3.56c-.07.76-.77 1.27-1.27 1.21a.76.76 0 01-.58-.5c-.25-.58 0-1.22.45-1.79l-.13-.5h-.57a13.4 13.4 0 01-.83 3.1l2.42 1.03-.57.31-2.04-.89-.09.19c-.1.21-.2.45-.35.64.82-.2 2.1.2 1.78 1.59-.13.64-.9 1.15-1.4.9-.77-.33-.7-1.15.06-1.66.06.12.13.25.26.38-.51.38-.58.95-.07.83a.86.86 0 00.26-1.53c-.26-.26-.77-.2-1.15-.06-.12.25-.25.43-.37.62l-.01.01c-.45.7-.95 1.34-1.53 1.9l.58.77-.5.38-.52.39c-.32.19-.06.7.38.25l.02-.02.06-.06c.36-.36.72-.72 1.13-.43.44.26.32.77-.07 1.21h.77v.45l-1.15.12-.19.45-.38-.07.2-.44-.7.13v-.26c.5-.13.88-.32 1.14-.7.25-.38-.13-.57-.45-.19-.32.32-1.08.64-1.33.45-.51-.45 0-1.21.95-1.6l-.32-.44a12.94 12.94 0 01-2.35 1.72l1.2 2.35h-.56l-.58-1.08-1.02.51c.13.5.07.95-.12 1.27a.76.76 0 01-.32.32c-.13.06-.32.06-.45.06a.76.76 0 01-.2-.04.45.45 0 00-.11-.02c-.7-.32-.83-1.27.31-1.78l.13-.13-.13-.32-.06-.12a12.6 12.6 0 01-4.64.89v.82c.5-.25 1.02-.5 1.46-.44.9 0 1.08.57.83 1.2-.26.58-1.08.52-1.6.45.07-.12.14-.32.2-.5.57.12 1.27-.13 1.14-.52-.19-.44-.95-.19-1.4.13-.12.08-.24.14-.38.2l-.25.12v1.08l-.32-.25-.06-.13v-.57c-.7.25-1.47.38-2.1.06-.51-.32-.7-.83.06-1.14.45-.26.95-.26 1.53.06a.76.76 0 00-.32.32c-.7-.26-1.21-.07-1.15.25.07.38.77.38 1.98-.06l-.07-1.08a12.9 12.9 0 01-3.5-.45l-.82 2.3-.2-.58.58-1.9c-.25-.05-.5-.15-.76-.25l-.39-.14-.06.32c.32.13.5.44.38.89-.13.44-.57.7-1.2.76-.13 0-.26 0-.45-.06v-.57c.12.06.32.12.44.12.45.07.83 0 .9-.32.06-.31-.26-.57-.9-.57-.19 0-.5 0-.82.06L21 40.6l.07-.12c-.39-.58-.77-.83-1.02-.51-.32.25-.13.7.25 1.08l-.44.19c-.64-1.27-.2-1.78.38-1.78.57 0 1.08.38 1.46 1.02h.2l.31.06.13-.38a3.74 3.74 0 01-.45-.26.98.98 0 01-.3-.11l-.02-.01.2-.32a10.11 10.11 0 001.84.83c-.19-.58-.44-.96-.95-.96v-.44c.57.12 1.08.5 1.46 1.27h.44l.07.44c1.08.26 2.22.45 3.37.45a13.35 13.35 0 005.24-1.1l.23-.11c.13-.06.26-.13.32-.13.03-.03.08-.04.13-.06.04-.02.1-.03.12-.06.11-.07.23-.14.36-.2.23-.14.48-.28.72-.44a13.38 13.38 0 004.01-4 12.38 12.38 0 001.9-6.94c0-.32 0-.64-.06-1.02h.39v.51h2.48l-.32.5h-2.1c0 .52-.06 1.03-.13 1.47h.45c0-.25.13-.44.32-.57a.88.88 0 01.38-.13c.63 0 1.08.51 1.27 1.34l-.5.32c.05-.7-.26-1.4-.7-1.34-.39.06-.45.9.18 1.84l-.44.39-.13-.2-.06.07c-.32.5-.39.89-.07 1.08h.07c.38.13.63-.19.82-.64l.45-.06zM43 24.7l.25-.5h-2.03l-.32.5H43zm0 1.21l.25-.56-2.03.05-.38.51H43zm-3.5 11.77c0-.26-.19-.38-.38-.38-.25 0-.38.12-.38.38 0 .19.13.38.38.38.2 0 .38-.2.38-.38zm.76-14.5c-.7 0-1.08-.13-1.14-.51v-.2c0-.14.08-.3.17-.48l.08-.15 2.3-3.69-2.55.45-1.2.19 1.2-2.48.38-.77a.9.9 0 01-.38.13l-.26.12c-1.21.55-2.56 1.16-3.75 1.22a5.9 5.9 0 01-1.65-.32v.25c.32.13 1.2.38 1.65.38a8.82 8.82 0 003.31-1.08l-1.4 3 2.1-.33 1.4-.25-1.4 2.42-.32.5c-.17.32-.21.66-.13.96a12 12 0 00-22.26 8.65l-.38.19c.25.45.13.9-.19 1.27a11.06 11.06 0 01-.86-3.94l-.03-.7h-.32v1.02l-.76.06c-.13-1.08-.57-1.4-1.02-1.34-.32.07-.64.45-.64.96 0 .44.2.76.64.95.06 0 .14.02.22.04l.23.03.12.95-.76.13a3 3 0 00-.38-.96l-.26.13c.39.76.07 1.27-.31.9-.38-.33-.21-.93-.07-1.42l.07-.24-.2-.07c-.31.7-.5 1.34 0 2.1.39.58.77.38 1.15.07l2.29-.39c0 .11.02.2.04.27l.02.18c.2.64.45 1.27.7 1.9l-.32.14-.09-.26a1.48 1.48 0 00-.29-.57 1.01 1.01 0 00-.63-.51h-.32c-.64.06-.9.57-.76 1.4l-.45-.32-.44-.25-.2.31.64.45.57.32-.25.25-.26-.19-.06.07-.38.31.19.26c.06.06.13.13.2.13.12 0 .25-.07.3-.13l.58-.32.57.13.07-.07.25-.31a.49.49 0 00-.25-.26.6.6 0 00-.3-.15l-.15-.04c-.32-.32-.38-1.08.2-1.08.12 0 .18 0 .25.06.25.2.44.7.57 1.47l.06-.07.9-.32v.02c.25.5.5 1 .82 1.45-.19.95-.7 1.01-1.2.31-.39.96-.39 1.79 1.2 2.23l-.45.45.13.5 1.15-.95.7-.57.38.38.06-.06.2-.2-.2-.18a5.76 5.76 0 01-1.14-1.34c-.51-.64-.96-1.4-1.34-2.16l.13-.13-.2-.38c.34-.66.43-1.23.33-1.7a11.98 11.98 0 002.41 4.43c-.06 0-.12 0-.19.07-.12.06-.19.12-.19.31 0 .13.07.26.2.32l.09.03c.03.02.06.04.1.04.2 0 .37-.14.42-.3a12 12 0 0019.53-13.4c.08.1.17.2.27.28.25.19.64.31 1.14.25v-.25zm-4.13 10.36h-4.26v-11h4.26v11zM36.6 22h-5.1v11.53h-.76v-.38h-.58l-.16-.38v-1.34c.07-.09.12-.13.16-.17.08-.07.16-.13.32-.46l.13-.38c.13-.07.19-.32.19-.58h-.51c0 .51-.45.7-.7.7v-.95l.07-.02c.16-.05.28-.09.5-.36l.2-.32a.5.5 0 00.25-.25v-.26h-.64l-.06.45h-.7v-.64l.13-.08c.3-.17.64-.36.7-.75.03 0 .1-.04.19-.1.08-.04.15-.09.19-.09v-.38h-.51l-.2.32c-.12.25-.7.19-.63.19v-.7c.32-.13.64-.32.76-.57l.32-.13v-.5h-.57c0 .18-.13.37-.32.5h-.32v-.64l.17-.09c.27-.15.54-.3.6-.67l.32-.13V24h-.58c0 .08-.08.19-.15.29l-.1.16h-.32v-.51c.32-.2.5-.45.57-.83l.38-.06v-.45h-.57c-.12.58-.38.58-.5.51v-.5c.22-.14.28-.21.42-.36l.2-.22c.26-.13.45-.7.2-.64h-.25c-.12 0-.17.12-.21.24a.6.6 0 01-.11.21l-.13.02c-.08.02-.18.04-.25.04v-.57c.31-.06.7-.32.76-.7h.19c0-.06 0-.19.06-.32h-.5a.64.64 0 01-.45.45 5.64 5.64 0 00-.1-.07c-.17-.13-.23-.17-.28-.44 0-.16.06-.32.12-.47.1-.27.2-.54 0-.87l-.06-.31c0-.42-.13-.54-.28-.68l-.1-.09a.54.54 0 01-.13-.38c-.06-.13-.25-.2-.32-.06-.11.1-.23.13-.34.17-.25.08-.44.13-.36.85l.2.5c-.42.32-.33.63-.2 1.01l.07.27v.38l-.13.19a.63.63 0 01-.44-.45h-.51c0 .13 0 .26.06.32h.2c.05.38.3.76.63.76v.58h-.26l-.1-.2c-.08-.16-.15-.31-.28-.31h-.25c-.26 0 0 .44.25.57.06.32.32.45.64.57v.51c-.2.07-.51.07-.64-.5h-.44v.44l.31.06c.07.38.32.64.64.83v.44l-.25.07a.7.7 0 01-.2-.45h-.57v.38h.26c.06.45.31.7.7.9v.63h-.32c-.2-.13-.26-.25-.26-.38h-.57v.38l.26.06c.19.26.44.58.7.64l.06.7s-.57.06-.57-.2v-.3h-.51v.37l.1.03c.03.02.06.04.09.04.2.38.44.7.76.95l-.06.64h-.32l-.06-.45h-.64v.26c.06.12.2.19.32.19l.06.19c.2.38.38.57.64.57v.95c-.26 0-.57-.19-.64-.63h-.44v.38l.25.13c.13.57.3.82.61 1.01v1.34l-.23.44h-.5v.32h-.77V22h-5.15v12h17.24V22zm-2.36 17.86l.2-.1.31.52-.95.44-.13.06-.2-.44-.05-.13h.06c.13-.06.26-.13.32-.13.03-.03.08-.04.13-.06.04-.02.1-.03.12-.06l.2-.1zm-.89 1.62c.26.58.07 1.15-.32 1.09a.49.49 0 01-.12-.04.49.49 0 00-.13-.03c-.38-.25-.32-.7.25-.95l.11-.03c.06-.01.14-.04.21-.04zm-4.13-29.13L28 14.2l-.7 1.14-1.27-2.99c-.45 1.72-1.4 4.01-2.8 4.2l-.2-.13c1.6-.58 2.21-2.52 2.78-4.3l.34-1.04 1.4 3.3.45-.7 1.53-2.54 1.27 4.14c.32 1.02.89 1.08 1.59.19l.19.19c-.83 1.14-2.04.83-2.35-.13l-1.02-3.18zm-5.15 10.18H19.8v11h4.27v-11zm-1.91-6.3c.06.51 0 .96-.26 1.27-.32.45-.89.64-1.46.39l-1.53-.7-.19-.13-1.14-.5-.2-.07.2.7.76 2.73-.76-.25-2.36-.83c.96 1.53 2.04 3.75 1.21 4.9l-.25.06c.63-1.46-.26-3.18-1.15-4.77l-.32-.61-.31-.6.63.26 2.55.89.25.13-.25-.83-.83-2.86.83.38 1.14.57.2.06 1.71.83c.74.4 1.18.25 1.27-.36.03-.18.03-.4 0-.66h.26zM18 36.78l-.44-.58-.45-.5c-.19.82-.63 1.01-1.4.63 0 .64.64.96 1.4 1.08l.45-.31.44-.32zm-3.24-7.25l.13.89-.9.12-.12-.95.89-.06zm-1.78-5.22l-.32.57h2.16l.2-.57h-2.04zm1.78 1.72l.25-.51H13l-.38.5h2.16zm-1.78 3.05h-.13c-.13 0-.25-.13-.25-.32-.07-.19 0-.44.19-.44 0-.07.06-.07.06 0 .13 0 .26.12.32.32.06.19 0 .38-.2.44zM28 39.5a11.5 11.5 0 100-23 11.5 11.5 0 000 23zm7.19-10.87v-3.08h.47l-.33-.67h-.4c-.32-.64-1.27-1.9-2.53-1.79l.26.46c.29-.13 1.07-.03 1.87 1.33h-.19c-.33-.4-1.2-1.17-1.94-1.02l.26.52c.17-.05.65-.02 1.14.5h-1.35l.26.67h1.82v.77c-.05-.12-.3-.35-.8-.35-.64.01-1.02.3-1.02.79 0 .5.35.9 1.09.92.15 0 .5-.06.73-.31v.88l.66.38zm-1.8-2.08l.45.68c-.19.05-.57.08-.64-.17a.5.5 0 01.2-.51zm.72.56l-.45-.65c.15-.1.52-.15.63.07.14.3-.06.51-.18.58zm1.39-3.02a.4.4 0 11-.8 0 .4.4 0 01.8 0zM34.56 30h-1.68v3h1.81c.42 0 .76-.35.76-.77v-.15a.76.76 0 00-.46-.7.76.76 0 00-.43-1.38zm-.18.51h-.93v.73h.93a.37.37 0 100-.73zm-.07 1.15h-.86v.86h.86a.43.43 0 000-.86zM20.5 30v3h.64v-2.5l.57 2.5h.63l.57-2.5V33h.57v-3h-.9l-.56 2.37-.57-2.37h-.95zm2.86-4.98H20.3l.2.63h.3v.8c-.36.02-.44.23-.44.32-.04.5.28 1 .73.98.35-.02.34-.45.29-.66h1.15v1.3l.58.44v-3.18h.45l-.2-.63zm-1.96.62h1.12v.82H21.4v-.82z" fill="#fff"/></svg>