<svg width="56" height="56" xmlns="http://www.w3.org/2000/svg"><path fill="#007CC5" d="M0 0h56v56H0z"/><path d="M27.998 35.64L18.511 44l5.31-11.433L13 26.335l12.365 1.323L27.998 8l2.634 19.658L43 26.335l-10.822 6.232L37.487 44l-9.489-8.36z" fill="#191917"/><path d="M27.998 35.399l-8.96 7.896 5.015-10.8-10.222-5.885 11.69 1.246 2.477-18.493 2.48 18.493 11.691-1.25-10.224 5.888 5.015 10.801-8.962-7.896z" fill="#E3300C"/><path d="M30.477 27.856h-4.956l-1.46 4.644 3.937 2.899 3.947-2.904-1.468-4.639z" fill="#007CC5"/><path d="M27.995 34.408a3.195 3.195 0 01-3.196-3.185 3.194 3.194 0 013.196-3.186 3.194 3.194 0 013.196 3.186 3.195 3.195 0 01-3.196 3.185z" fill="#191917"/><path d="M27.995 34.227a3.013 3.013 0 01-3.016-3.004 3.015 3.015 0 016.03 0 3.013 3.013 0 01-3.014 3.004z" fill="#fff"/><path d="M27.884 29.158c-.004.004-.007.008-.007.013 0 .01.005.015.012.02-.03-.001-.044-.015-.044-.015s.01-.014.04-.017zm.03 0c.007.004.015.005.026.01 0 0-.008.017-.032.02.005-.003.012-.01.012-.018 0-.005-.003-.009-.007-.013v.001zm-.067.04c.006.004.03.01.05.01.057 0 .074-.04.081-.043 0-.04-.026-.076-.065-.081a.077.077 0 00-.05.01.076.076 0 00-.033.035c.019-.005.041-.029.089-.02.022.004.049.035.034.04-.014-.008-.017-.013-.028-.015-.039-.015-.076.014-.097.03-.005 0-.008-.003-.012-.003.006.017.014.023.03.035l.001.001zm.245-.04a.015.015 0 00-.005.013c0 .01.005.015.012.02-.027-.004-.044-.015-.044-.015s.012-.014.037-.017zm.032 0h.004c.006.004.015.004.017.008.003.003.005.003.006.003 0 0-.009.017-.032.022.005-.005.01-.01.01-.02a.016.016 0 00-.005-.012zm-.153.158c.005.005.01 0 .017 0 .022 0 .044.013.063.005.034-.016-.005-.063-.005-.093a.07.07 0 01.009-.04c0 .002.064.036.105-.004.004-.008.014-.008.02-.014.002 0 .005-.004.005-.005l.004-.012c-.006 0-.009.012-.017.005-.026-.017-.043-.024-.071-.02-.027 0-.05.015-.05.015-.01-.05.092-.06.118-.025a.087.087 0 00-.02-.031c-.03-.027-.098-.007-.116.017-.014.017-.016.093-.014.122 0 .015.014.022.012.037 0 .012-.007.024-.018.026-.016.003-.05-.016-.041.017zm1.407 3.837c-.036-.015-.04-.05-.065-.07-.003 0-.015-.013-.023-.014l-.023-.014c-.028-.013-.062-.019-.093-.027-.012-.004-.022-.004-.034-.005-.014-.005-.026-.014-.04-.02-.045-.009-.1-.005-.149-.009-.076-.004-.146-.015-.217-.024-.032-.005-.07-.008-.1-.02-.01-.004-.02-.01-.03-.012a.105.105 0 00-.072.005c-.01.003-.02.012-.027.012-.014-.001-.024-.022-.045-.017-.01.01-.017.026-.008.037a.111.111 0 00.027.022c.024.01.037-.003.053-.007.057-.015.122.012.171.02.131.02.303.013.418.05.022.004.044.008.063.015.054.02.092.052.134.078.026.032.05.056.097.067.022.008.058.008.058-.023.001-.036-.065-.03-.095-.044zm.802-.162c.009.008.027.03.025.045a.02.02 0 01-.017.013c-.022 0-.018-.053-.054-.05-.004.002-.01.002-.014.01-.01.03.055.041.036.088-.006.02-.029.023-.056.023 0-.01.01-.014.01-.024 0-.03-.043-.06-.068-.034.001.024.029.037.019.063-.014.015-.051.015-.063 0 .003-.002.017.003.023 0a.013.013 0 00.01-.013c.004-.013-.01-.017-.023-.023-.01-.01-.02-.016-.028-.024.005-.053-.044-.063-.096-.068l-.27-.024c.004-.04-.035-.045-.069-.052-.047-.01-.09-.012-.139-.024-.02-.003-.052-.013-.054-.029-.001-.018.025-.03.039-.04.046-.034.09-.066.13-.102a.652.652 0 01.23.097c.019.01.04.017.056.025.02.012.041.02.06.027.095.027.227.001.297.048.024.015.046.037.046.07-.017 0-.017-.04-.036-.042-.01 0-.019.01-.019.017 0 .01.014.016.024.022zm-.25.093c-.019-.009-.04-.009-.063-.01-.034-.004-.07-.012-.105-.017-.036-.007-.072-.009-.102-.017.022-.012.06-.008.093-.008.063-.004.167 0 .19.035a.131.131 0 01.004.024c-.003 0-.01-.005-.017-.008zm-.296.007c.01.029.036.038.031.08a.135.135 0 01-.034.035.05.05 0 00-.012-.047c-.008 0-.004.014-.009.014-.014-.004-.009-.02-.029-.02-.003.02.014.028.015.045.005.042-.025.064-.064.06.004-.018.03-.012.035-.026.004-.02-.015-.034-.027-.043-.01 0 0 .01-.012.014-.013-.005-.022-.029-.044-.02.01.012.022.034.009.05a.118.118 0 01-.06.014c-.034-.001-.068-.009-.085-.029-.01-.014-.015-.03-.025-.04-.013-.013-.034-.013-.048-.026-.008-.005-.012-.017-.019-.024-.012-.01-.032-.017-.052-.025a.596.596 0 00-.18-.046c-.106-.01-.22-.007-.322-.025-.037-.008-.073-.016-.107-.02-.037-.004-.074.008-.107.004-.03-.005-.047-.027-.056-.054a.553.553 0 00-.056-.203.168.168 0 01-.006-.097c.001-.023.012-.052.017-.083.004-.03.004-.064.009-.095a.262.262 0 01.05-.128c.013.003.023.023.031.032.026.017.058.024.082.046a.13.13 0 01.025.03c.031.053.02.136.043.2.004.009.012.015.01.025-.034.005-.077.004-.097.026.015.025.054.005.087.005.032 0 .071.01.093.025.017.013.034.04.056.048.034.013.089.015.133.02.05.004.1.008.14.017.069.013.13.039.19.064l.028.014c.009.005.015.013.024.017.02.013.048.012.073.015.026.005.048.014.07.02.018.01.047.015.071.03.009.004.015.014.026.018.017.003.034-.002.047.003a.154.154 0 01.046.024c.029.017.053.039.053.081-.013-.008-.015-.044-.043-.025zm-1.056.107c-.033-.019-.066-.046-.109-.056-.014-.004-.027-.007-.04-.004-.005.017.02.014.035.016a.213.213 0 01.08.032c.01.008.03.018.023.032-.012.024-.056-.017-.056-.026-.012-.003-.017-.015-.03-.02-.01-.003-.022 0-.033-.003-.013 0-.022-.008-.032-.01-.005.035.053.02.07.035.005.004-.004.009-.004.015.006.008.012.01.017.014 0-.001-.005-.007-.001-.014.04-.008.043.038.01.048-.034.009-.056-.017-.08-.024-.04-.007-.073.005-.105-.003-.03-.008-.041-.026-.061-.044-.023-.023-.05-.024-.082-.034.015-.03.024-.065.05-.087.013-.013.076-.042.108-.023.017.007.044.012.056.018.01.005.02.012.027.019.01.008.017.023.027.027.022.007.061.012.087.022.007.001.02.004.02.013 0 .005-.001.013-.01.013-.006 0-.01-.009-.015-.013-.02-.013-.06-.012-.085-.022.004.005.014.008.017.01.041.009.073.027.104.044.009.004.025.015.012.024zm-.444-.286c.004-.185.01-.376.017-.564 0 0 .002 0 .004-.004l.001.004c.006.007.006.02.006.03l.031.234c.012.088.037.171.04.262-.02.01-.043.016-.062.022-.012.005-.02.017-.037.016zm.174-.095c-.014.007-.031.007-.048.01a3.475 3.475 0 01-.078-.453 3.394 3.394 0 01-.024-.489c.01-.004.02-.01.036-.005.022.01.013.085.015.117.004.125.012.256.02.37.006.084.017.165.03.235.01.078.038.145.049.215zm-.043-.496a2.549 2.549 0 01-.005-.417c.001-.019.001-.037.004-.054.005-.032.006-.065.027-.087l.037-.027a.363.363 0 00.034-.034c.005-.02.02-.044.02-.059 0-.005.002 0 .002.001.012.283-.029.481-.056.739-.008.07-.014.14-.02.213-.028-.08-.031-.178-.043-.276zm-.199-.476l-.064.074c-.01.012-.02.027-.034.036.07-.198.16-.386.22-.596.03-.105.06-.21.089-.32.029-.114.043-.232.046-.366 0-.001 0-.004.003-.004l.002.001c.022.013.029.038.034.06.027.069.04.15.056.23.009.054.017.11.019.17 0 .025.007.055.007.086.001.03.005.066.001.091-.005.032-.03.068-.047.097-.016.032-.036.059-.055.086a1.27 1.27 0 01-.117.16c-.054.065-.104.133-.16.194zm.044.181c.004.154-.008.301-.012.454-.004.18-.019.354-.027.516-.034-.005-.066-.018-.104-.025-.039-.007-.081-.007-.119-.009.058-.196.128-.394.17-.608l.082-.386s0-.003.003-.003c.01-.004.007.047.007.06v.001zm-.28 1.072c.014-.032.027-.061.04-.098h.005c-.009.032-.024.07-.036.1-.005 0-.005-.004-.009-.002zm.168.086c-.012.033-.01.066-.044.087-.006.003-.017 0-.02.005-.029.018-.027.098-.082.064-.012-.029.024-.036.038-.019 0-.017-.02-.018-.038-.018.004-.034.027-.046.048-.063v-.017c-.015-.014-.029.005-.027.022-.005.009-.024.022-.033.036-.01.017-.01.035-.028.017-.004-.046.035-.048.044-.08 0-.005-.004-.005-.005-.009-.03-.003-.02.036-.043.041-.01.019-.013.044-.025.06-.005.005-.01 0-.016-.003.004-.004-.003-.008 0-.013.002-.005.007-.005.01-.009-.015-.029.009-.06.027-.074-.015-.03-.04.025-.045.039-.004.012 0 .025-.01.025-.013-.001-.002-.046.003-.058.008-.017.02-.02.024-.032-.008 0-.023.01-.029.019-.005.005-.007.017-.013.017-.015 0-.001-.024.001-.027.014-.015.02-.022.043-.026.008-.007.012-.02.022-.025.02-.014.076-.008.105-.005.019.001.04.005.056.009.02 0 .04 0 .05.013-.002.012-.01.015-.013.024zm-.204.138c.004 0 .005.003.01.003-.003-.013.016-.015.02-.007.01.032-.042.034-.03.004zm-.154-.14c-.07.002-.138.004-.202.01-.017-.067-.034-.133-.05-.203.073-.003.152.013.218.019.008.01.013.02.02.032.014.014.034.022.05.036l.028.032a.307.307 0 01.055.04c-.013.012-.03.018-.038.03-.018.01-.052.004-.081.005zm-.185.08a.025.025 0 01-.004-.012.205.205 0 01.022-.01 1.23 1.23 0 01.209-.022c.005 0 .019-.005.02.004-.078.018-.168.025-.248.04zm-.104.03a.638.638 0 01-.148.026l-.073-.001a.345.345 0 01-.098-.019.229.229 0 01-.04-.027c-.017-.017-.03-.037-.022-.073 0 0 .004-.003.004-.005v-.017c.005-.007.012-.015.012-.027a.08.08 0 00-.018-.035.054.054 0 00-.05.022l-.005.008s-.013.013-.015.013a.071.071 0 01-.027.007.114.114 0 01-.048-.008c-.035-.016-.056-.048-.078-.078-.004-.024-.013-.036-.01-.065 0-.017.005-.04.014-.054.004-.01.027-.034.017-.056-.004-.008-.015-.01-.022-.017-.008-.007-.005-.015-.012-.024a.024.024 0 00-.03.009c-.012.02-.018.06-.025.078.001.037-.001.081.008.115.003.024.02.034.023.056a.44.44 0 00.06.063c.013.02.056.035.066.056.02.008.035.017.056.027.017.022.058.02.076.039a.255.255 0 01.06.027c.076.026.14.063.214.088.029.017.056.034.083.048.012.017.029.028.04.044h-.002c-.015-.005-.027-.028-.048-.017a.06.06 0 00.03.037c0 .004.002.004 0 .009.007-.005.01.008.018.012-.014.004-.022-.02-.036-.024-.003-.009-.012-.02-.023-.02-.005.007.006.01.003.019l-.013-.016c-.013.013.008.024.013.034-.008-.004-.017-.017-.029-.022-.007.005 0 .012 0 .019-.007 0-.007-.012-.012-.01-.007.01 0 .02.005.029.004.01.01.018.012.03.008.04-.013.092.008.127-.026-.027-.009-.083-.013-.117a.249.249 0 00-.025-.066.471.471 0 00-.267-.162c-.022-.014-.061-.02-.09-.029-.068-.019-.136-.05-.204-.076-.034-.022-.056-.05-.083-.076a.46.46 0 01-.044-.063.182.182 0 01-.022-.06.22.22 0 01-.008-.055.363.363 0 01-.005-.075.419.419 0 01.053-.157c.022-.037.05-.068.075-.098.029-.03.06-.061.088-.097.029-.046.05-.09.09-.123.02-.018.044-.028.072-.043a.676.676 0 01.25-.076c.045.168.088.34.132.508.006.024.013.05.012.074-.027-.008-.102-.03-.127-.015-.03.015.005.053.032.053-.005.003-.012.003-.017.005a.107.107 0 01-.04.02c-.004.004-.009.004-.014.005-.017.007-.026.018-.034.035-.01.02.006.043.034.029.015-.009.037-.032.05-.039a.305.305 0 01.138-.024c.019.068.038.14.053.215a.405.405 0 01-.145 0c-.032-.01-.05-.012-.073.008.005.007.009.01.009.02 0 .03-.044.02-.05-.004-.008.038.038.067.072.07a.046.046 0 00.019 0 .803.803 0 00.183-.034c.004.02-.024.017-.037.024l-.002-.003zm-.043.236c.018.015.024.04.035.061-.016-.017-.023-.04-.035-.06zm-.222-1.754c-.036-.153-.07-.307-.112-.46-.01-.037-.017-.075-.027-.113a.88.88 0 01-.03-.115c-.049-.232-.111-.46-.166-.69v-.004c.033.014.08.009.111.019-.005.03.005.059.044.056.006.013.009.028.016.04.027.008.049-.005.064-.012.136.056.258.124.421.15.008.162-.013.333-.017.509 0 .059-.01.115-.012.174a3.805 3.805 0 01-.022.334c-.012.08-.02.162-.027.239-.004.03-.004.057-.005.09-.001.025-.01.06.001.08a.054.054 0 00.019.018c.036.025.095.044.13.07 0 .01.002.02 0 .031-.094.01-.181.027-.273.04-.037-.152-.08-.302-.115-.456zm-.36-1.469c.004-.01.024-.013.025-.028 0-.014-.01-.02-.012-.034.014.004.02.02.032.034.006.007.03.03.041.03.014.004.04-.007.03-.023-.013-.008-.03-.004-.043-.014-.02-.014-.03-.039-.04-.063.007-.015 0-.034-.013-.039a.061.061 0 00-.015-.054v-.005h.003c.024.012.05.024.072.037a.159.159 0 01.083.124c.017.01.037.017.05.032-.008.04-.021.071-.05.09-.019-.01-.036-.026-.053-.037-.02.018-.085.008-.1-.008-.005-.005-.014-.03-.01-.042zm-.055-.025c-.013.004-.017.015-.022.027-.02-.005-.035-.044-.007-.058.024-.01.095.005.095.022.001.026-.047.008-.066.009zm-.063-.068c.02-.022.067-.01.09 0 .013.004.035.01.026.027-.032.004-.075-.013-.102.013-.012-.005-.017-.024-.014-.04zm-.006-.059c.006-.007.026-.007.036-.008.036-.004.05.012.073.025.014.01.036.013.034.025 0 .009-.01.01-.026.009-.023-.004-.05-.022-.078-.015-.013 0-.023.01-.032.01-.017-.004-.015-.036-.007-.046zm.128.004c-.015.003-.026-.014-.038-.019-.03-.013-.067-.001-.095.005-.017-.083.148-.046.133.014zm-.112-.126c.008 0 .015.01.02.017.012.013.034.026.046.041-.019-.008-.046 0-.06-.01-.012-.005-.027-.046-.006-.047zm.351.261c0-.007.01-.005.014-.003.012.028-.004.062-.015.09-.01.02-.031.055-.051.065-.014.008-.034.008-.034-.01 0-.007.02-.02.027-.028a.291.291 0 00.06-.114zm.046.022c.004-.003.014-.007.017 0-.012.005-.029.03-.012.04-.008.01-.019.014-.015.033-.01.005-.02.017-.016.027-.005.008-.01.013-.015.019l.001.01c-.019.003-.019.023-.035.028-.005 0-.005-.012-.008-.016.041-.033.061-.087.082-.141h.001zm.024.107c.001-.008.001-.015.005-.022a.076.076 0 00.012-.022c.004-.01 0-.022.012-.029.079.015.164.029.237.053.017.005.034.01.047.017.014.007.024.023.038.03.012.001.018.007.027-.001.027-.026-.01-.065-.043-.065 0-.013.004-.023.008-.034.005-.003.025 0 .035 0a.44.44 0 01.133.05c-.01.059-.044.093-.061.145-.02.02-.026.058-.058.065a.446.446 0 01-.076-.013l-.074-.017c-.023-.007-.044-.018-.066-.023-.068-.026-.137-.06-.202-.085.001-.022.019-.032.027-.05h-.001zm.357-.129a.36.36 0 01.176.054c0 .004 0 .009-.005.013a.864.864 0 00-.176-.053c0-.008.001-.012.005-.013zm.037-.168c.012-.072.024-.145.043-.223.015-.066.027-.124.054-.174.009-.017.019-.026.032-.04.005-.004.005-.012.01-.016.017-.014.036-.024.055-.043.003 0 .008-.003.008 0 .019-.015.05-.018.071-.03h.006a.953.953 0 00.018.157c.008.03.017.053.02.08l-.115.083c-.01-.012-.005-.03-.02-.037-.008.013-.017.022-.017.037 0 .01.012.03.01.04-.002.014.003.079 0 .104-.002.014-.014.08-.016.112-.001.017-.003.029-.001.044a1.173 1.173 0 00-.17-.04c.005-.018.005-.04.012-.053zm.321-.25c.012.017.051.017.037.047a.177.177 0 01-.062.055h-.017c0-.02.013-.024.018-.038.01-.013.006-.037 0-.047.004-.01.018-.012.025-.017zm.061-.322v.004c.009.054.014.108.024.157.005.017.014.032.014.051a.176.176 0 01-.055.034.562.562 0 01-.035-.225.367.367 0 00.052-.02zm-.012-.455c.005-.024.009-.044.017-.063l.019-.029c.037-.044.093-.064.148-.086 0-.012 0-.026.005-.038.004.013.003.028.007.038.048.008.075.032.107.059.034.024.063.06.073.107.005.023.004.04.01.06.009.018.024.033.022.06a.355.355 0 01-.119.254.156.156 0 01-.119.039.24.24 0 01-.105-.056.33.33 0 01-.061-.085.239.239 0 01-.04-.15c.002-.044.028-.068.036-.11zm.362.497c.005-.021.006-.03.013-.047a.267.267 0 01.046.02c-.015.016-.042.017-.06.027zm-.037-.1c0-.008.004-.02.004-.035 0-.012-.003-.022.002-.03-.002.037.017.069.015.103-.001.034-.019.06-.03.086a1.835 1.835 0 00-.215.119.52.52 0 01-.044-.147c-.003-.022-.008-.046-.005-.065 0-.015.01-.027.01-.045.014.01.024.021.038.035.025.02.057.05.105.05.015 0 .03-.006.046-.01.018 0 .037.01.054-.003.01-.005.022-.024.022-.04 0-.008-.004-.013-.004-.018h.002zm.146.177c-.023.03-.058.052-.09.078-.065.049-.131.095-.196.149a.362.362 0 00-.042.04c-.022.022-.051.038-.041.075.024-.001.039-.024.054-.037l.155-.143.012-.01v.004c.03-.027.065-.05.099-.078.018-.015.035-.03.057-.042.004-.001.007-.005.01-.007h-.003a.554.554 0 01.054-.033.156.156 0 01.034-.01c.02-.004.053-.028.07-.004-.02.017-.044.023-.065.037-.032.024-.06.04-.09.064-.009.01-.019.017-.029.026a.963.963 0 00-.109.111.95.95 0 00-.054.068 2.16 2.16 0 00-.102.14c-.065.097-.127.196-.209.277-.022.02-.087.05-.097-.004.014-.001.03-.001.04-.007a.215.215 0 00.066-.065c.012-.015.03-.034.022-.05-.023-.002-.033.023-.044.037-.023.01-.035.024-.065.024-.06 0-.09-.034-.089-.102 0-.017-.003-.09.004-.108a.169.169 0 01.056-.066c.044-.033.077-.058.12-.088.013-.01.023-.023.037-.033.025-.018.056-.035.081-.054.066-.042.134-.081.206-.117v.004c.03-.017.063-.03.093-.047h-.005l.06-.03zm-.009.843v-.027l-.001-.027.001-.015c-.001-.004.001 0 .001-.004l.005.001c.001.015.005.036.005.054 0 .013 0 .022-.005.033-.005-.002-.007-.01-.007-.016l.001.001zm-.353 1.433c-.016.034-.036.062-.053.093a.338.338 0 01-.061.083c-.044.05-.089.105-.131.157-.037.046-.076.092-.11.143-.005.005-.01.017-.02.017-.007-.024-.007-.051-.01-.078a2.204 2.204 0 01-.008-.256c.002-.061.022-.098.045-.144a.777.777 0 01.018-.044c.03-.071.063-.147.099-.208.027-.056.063-.104.093-.154.065-.099.131-.197.187-.305.044-.082.08-.163.122-.246.026-.054.056-.11.082-.162a.394.394 0 01.08-.11c0-.004.003-.005.008-.004.014.001.004.044.004.054l-.014.052c-.044.177-.098.34-.156.505-.008.032-.025.066-.035.097-.01.032-.02.07-.033.098-.007.012-.017.025-.023.037a.224.224 0 00-.023.04c-.015.028-.032.055-.04.082a.248.248 0 00-.033.046c-.018.03-.039.06-.049.101-.005.017-.014.048.001.054.019.008.038-.028.048-.04l.032-.058c.063-.117.114-.257.163-.384.051-.134.094-.271.133-.413.008-.036.02-.072.029-.109.003-.01 0-.027.013-.032 0 .044-.008.085-.013.129a1.54 1.54 0 01-.028.117l-.06.23a2.75 2.75 0 01-.16.42c-.016.032-.028.066-.048.098l-.05.093zm-.333.714c.007-.022.022-.044.034-.066a2.533 2.533 0 01.165-.247c.015-.02.03-.037.042-.057a.953.953 0 01.068-.089c.006-.008.012-.022.022-.028.01.013-.001.032-.004.044-.017.076-.03.145-.06.215 0 .005-.038.066-.016.078.013.003.03-.036.034-.046a1.63 1.63 0 00.063-.175c.018-.06.037-.12.06-.177.01-.02.016-.041.026-.058.008-.009.02-.015.026-.026l.001.002c.001.029-.007.07-.013.111-.01.058-.023.112-.034.168a4.439 4.439 0 01-.077.285l-.097.266a.52.52 0 01-.017.042c-.01.022-.013.046-.032.05-.01.004-.03-.003-.046-.004a.325.325 0 01-.136-.061.907.907 0 01-.013-.095c-.004-.05-.014-.093.003-.132zm-.097-.374c.005.071.007.142.01.217a.416.416 0 00-.184-.001.079.079 0 00-.019.013c0 .024.013.04.024.053.01 0 .022.003.03.008.021-.003.041-.012.069-.005.008.002.018.013.027.016.013.005.025.007.032.012.02.015.03.04.048.054.012.046.018.115.025.17a.957.957 0 00.03.132.074.074 0 00-.028-.005c-.03-.004-.065-.002-.094-.008-.022-.003-.05-.003-.08-.005l-.152-.611a.229.229 0 01.081-.022l.145-.02a.075.075 0 01.035.003zm.343-1.72c-.02.008-.017-.017-.022-.041-.004-.024-.017-.054.01-.053a.318.318 0 01.012.094zm.004-.133c-.01.01-.031.022-.053.01.004-.017.022-.02.032-.027.012-.009.022-.02.034-.025a.14.14 0 00.066-.03c.005 0 .005.002.008.002-.02.027-.058.05-.087.07zm.07.12a.096.096 0 01.003-.079.108.108 0 01.08-.044c.05-.005.1.012.117.044.017.048 0 .1-.039.12-.053.03-.143.004-.161-.042zm-.145.788c-.03.008-.036.04-.05.063-.022.05-.044.095-.064.15-.046.112-.092.236-.136.353-.004.01-.005.025-.017.034-.006-.014-.005-.034-.005-.051a3.982 3.982 0 01.004-.27c.003-.035.008-.065.01-.1l-.002-.074c.002-.02.009-.04.014-.062l.015-.058a.075.075 0 01.012-.029.893.893 0 01.12-.225c.042-.06.088-.117.134-.168.06-.069.125-.128.198-.18a.764.764 0 00.121-.102c.012-.014.02-.03.036-.04 0 .018-.009.035-.014.045-.024.035-.052.07-.078.105-.051.067-.105.135-.151.213l-.066.117c-.068.113-.128.235-.196.352a.64.64 0 00-.056.125c.014 0 .017-.015.024-.027.093-.154.183-.315.279-.467a2.2 2.2 0 01.166-.235 1.13 1.13 0 00.12-.178c.014-.02.026-.044.04-.061.013-.013.023.025.02.047-.001.01-.012.027-.017.04-.02.042-.032.084-.053.123-.027.052-.056.103-.078.152-.05.108-.11.203-.165.3-.029.049-.056.098-.083.147-.076.137-.153.271-.227.41-.007.01-.013.029-.026.029a4.12 4.12 0 01.117-.264c.022-.05.041-.09.055-.15.005-.021.017-.049 0-.064h-.001zm.392-.979c.024-.012.043-.013.058-.022h.005v.005c0 .005-.007.009-.01.014-.017.025-.02.066-.044.078-.015.01-.034.003-.056.007-.04-.039-.13-.04-.177-.013-.015.007-.03.023-.056.017.005-.02.024-.028.04-.038.03-.017.057-.035.091-.052.017-.008.036-.017.054-.012.002.025.014.043.051.035a.151.151 0 00.024-.01v.002c.007-.002.014-.008.02-.01zm-.436.212c0-.039-.002-.073 0-.107v.002c0 .032.007.074 0 .105zm-.159-.02c.002-.012 0-.026.004-.036.005-.023.017-.045.027-.064.01.015.007.04.01.064l.013.104c0 .027 0 .05-.01.066l-.034.059a.81.81 0 01-.009-.193zm.031.223l.024-.049a.492.492 0 01.06-.096c.013-.017.025-.034.04-.05a.906.906 0 00.143.016c.013.001.034 0 .046.003.013.004.029.02.046.024.02.008.045.004.07.008-.018.03-.048.05-.074.074a.94.94 0 00-.071.071c-.046.05-.094.098-.136.156a5.932 5.932 0 00-.124.164c-.03.043-.055.09-.083.136-.008.013-.014.032-.028.042-.003-.091.01-.181.022-.267.005-.038.02-.078.031-.117.012-.038.02-.08.034-.114zm-.153.913c-.001.073-.007.146-.008.22 0 .03-.002.06-.004.088-.001.03 0 .056-.006.082-.01-.005-.017-.013-.038-.009.02-.142.034-.285.051-.428h.004c.006.014.001.031.001.047zm.03-.081c-.014-.001-.028-.005-.043-.009 0-.166 0-.323.008-.465.004-.04.004-.078.004-.117l.005-.109c.003-.086.003-.17.008-.264.023-.01.038-.027.056-.039l.002.001c.013.041.003.09.006.133.004.045.012.093.006.133-.001.017-.009.034-.012.048-.004.015-.005.032-.014.042.001.02-.006.044-.012.068v.017c0 .003-.004.008-.004.01-.022.154-.01.354-.013.55h.002zm1.024-1.877l.013.034c.015.055.024.112.032.172a.595.595 0 01.017.084l.02.083a.083.083 0 00-.033.007c-.058.01-.138.01-.204.03v-.013l-.001-.012c-.004-.022-.004-.02-.004-.038 0-.015-.001-.038-.009-.035 0-.02-.027-.06-.03-.029v.027c.005.048.004.046.005.098.001.02.005.11-.002.13-.01 0-.02.003-.03 0a.16.16 0 01-.043.015.2.2 0 01-.064.01.341.341 0 01-.063-.018c-.015-.008-.032-.022-.05-.025-.049-.017-.052.034-.108.023.019-.049.05-.088.077-.13a1.23 1.23 0 01.12-.166v.001l.054-.064c.024-.027.048-.053.073-.078.01-.007.017-.019.033-.02a.17.17 0 01-.061.105c-.01.01-.02.022-.027.027-.01.007-.024.01-.026.022v.007c-.001.024.029.029.048.019.02-.014.037-.051.052-.078a.64.64 0 01.175-.217c.015-.012.03.017.036.029zm.103.446c-.013.004-.03.004-.047.007-.004-.012-.005-.025-.009-.039.01-.005.025-.012.04-.008a.077.077 0 00.016.04zm.01.022c.004.004.012.001.012.008 0 .01-.044.018-.052.02a.77.77 0 00-.174.075c-.015.01-.022.024-.039.017a.072.072 0 01.02-.024c.01-.007.023-.012.031-.017.041-.018.082-.04.13-.057.021-.008.05-.012.07-.022h.002zm.017.422c.04.11.07.225.102.348.005.017.017.046.012.061-.003.02-.056.034-.078.036-.013.001-.034.001-.04-.004-.01-.005-.018-.034-.024-.049-.04-.081-.123-.329-.157-.416-.013-.036-.008-.063-.017-.097-.003-.02 0-.042-.001-.108a.374.374 0 01.151-.03c.006.033.009.035.015.069.002.022.004.023.005.045l.005.05a.197.197 0 00.008.037c.003.018.013.035.02.057zm.145.415h.004c.013.012-.007.032-.017.04a.271.271 0 01-.134.036c-.018 0-.05-.002-.039-.027.072.017.162.003.185-.05zm.013.045c.014-.003.027.013.027.022 0 .017-.02.01-.039.015-.008.002-.013.014-.025.017-.004.002-.013 0-.017.002-.009 0-.016.007-.024.01-.006 0-.014-.004-.02 0-.01 0-.014.007-.022.012-.017-.009-.024.005-.036.008-.017.004-.04-.013-.027-.03.006-.012.04-.01.058-.012a.39.39 0 00.059-.014c.03-.01.05-.029.066-.03zm.034.058c.068.017.133.049.2.07.043.012.084.023.116.043.009.005.014.01.02.014l.036.018c.005.004.014.002.01.01-.012.008-.02-.007-.029-.01-.058-.03-.117-.066-.197-.076.009.012.024.012.037.014.072.018.133.063.19.096.01.005.024.01.024.024-.01.007-.023-.001-.03-.007-.065-.044-.13-.095-.226-.11-.008.017.019.018.027.02a.4.4 0 01.127.054l.036.025c.014.008.03.013.037.026-.02.015-.049-.001-.071-.014-.019-.008-.032-.018-.053-.027a.699.699 0 00-.122-.032c-.022-.005-.046-.005-.066-.01-.019-.004-.036-.018-.056-.018-.017.02.013.018.034.026.001.002.007.01.009.01.025.007.062.004.093.009.02.004.058.015.058.025 0 .022-.077.005-.099.005-.05-.003-.081.004-.127-.005-.034-.005-.07-.013-.089-.035a.07.07 0 01-.012-.027c0-.01.004-.024 0-.037-.004-.013-.012-.016-.006-.026.001-.009.006-.001.019-.007.005 0 .01-.005.013-.008.006 0 .016.002.022 0 .013 0 .014-.018.033-.013a.174.174 0 01.042-.029v.002zm.306.085c.01-.008.027.004.044.012.014.005.029.008.04.013.009.009.04.043.047.056.008.019.003.04-.009.06-.02.015-.044.025-.066.037-.009.005-.017.005-.024.01-.014.007-.02.023-.034.023-.001-.012.009-.02.012-.029.009-.007.014-.017.02-.023.028-.008.084-.016.087-.043 0-.013-.013-.018-.02-.032-.005-.005-.006-.015-.01-.018-.01-.013-.03-.02-.046-.031a.191.191 0 01-.024-.015c-.006-.004-.018-.01-.018-.019l.001-.001zm.13.027c.03-.004.035.027.059.035.017.005.039-.001.057.004.02.005.024.02.036.035.004.005.017.014.014.02-.002.01-.016.01-.023.01-.02.01-.042.031-.06.046a.18.18 0 01-.075.036c-.016.001-.034-.004-.051-.004-.016 0-.033.01-.046.001.01-.013.03-.013.046-.022.027-.012.08-.034.076-.083-.004-.025-.027-.049-.032-.076v-.002zm.19.132c.03-.002.045.017.059.035.04.061.049.16.078.24.004.016.012.033.017.05.015.054.012.118.012.181-.001.064-.005.132-.005.198.004.105.026.205.024.319 0 .013.004.03-.005.042-.009-.001-.009-.015-.01-.022-.008-.024-.02-.05-.023-.08a.377.377 0 01.003-.064.4.4 0 00-.027-.173c-.005-.01-.02-.029-.022-.037 0-.009.009-.019.01-.029.015-.07-.038-.12-.036-.19 0-.027.005-.052.004-.077a.318.318 0 00-.066-.183c.013-.019.037-.034.046-.063a.17.17 0 00-.002-.09.094.094 0 00-.023-.044c-.03-.02-.073-.003-.094.01l-.013.017c-.01.008-.02.009-.031.015.03-.023.06-.054.105-.056h-.002zm-.203 1.37a.208.208 0 00.026-.119c-.002-.04-.016-.076-.009-.117.009-.039.034-.08.054-.118a.25.25 0 00.034-.088.139.139 0 00-.003-.056c-.008-.022-.022-.04-.026-.058 0-.019.01-.035.019-.05.009-.011.022-.02.029-.031l.008-.019c.007-.017.016-.035.02-.058.005 0 .005-.005.006-.005 0 0 0 .004.003.004.005.043-.018.097-.005.139.002.007.008.015.01.022.005.007.007.014.013.022.012.024.034.037.04.068a.095.095 0 010 .052c-.003.01-.01.019-.013.037 0 .026.012.046.004.07-.004.019-.02.029-.026.052-.006.024.001.055 0 .077 0 .013-.005.03-.01.047-.006.04-.008.08-.035.1-.009.007-.017.01-.026.015-.009.005-.014.015-.027.017-.009-.01-.004-.025 0-.034.017-.047.078-.11.03-.162 0 .028 0 .066-.013.09-.009.012-.026.023-.03.035a.033.033 0 00-.01.017c-.008.027 0 .059-.015.09-.015.035-.073.05-.12.032a.184.184 0 00.073-.072zm-.24-.329c-.003.014-.018.024-.013.042-.026-.032-.005-.07-.005-.12-.004-.04-.047-.074-.025-.122.012.009.017.02.022.04.003.007.008.012.01.016 0 .009 0 .016.004.024.005.012.014.022.017.029.002.017-.015.034-.015.054 0 .01.009.027.005.037zm-.122.183c.004-.03.017-.058.02-.088a.559.559 0 000-.066c-.005-.064-.062-.119-.045-.195.012-.003 0 .019.01.02.012.002.013-.007.02-.008.02-.066-.043-.108-.02-.176.012.01.018.024.035.03.005.019.015.038.017.058 0 .015-.008.027-.008.042 0 .04.023.058.039.088.005.058-.006.119.015.17.01.028.029.045.046.067l.013.024c.02.058.01.122-.025.147-.014.01-.03.016-.04.028-.01.01-.01.025-.021.032-.008-.009 0-.036-.004-.051a.107.107 0 00-.014-.032c-.017-.026-.04-.05-.039-.09h.001zm-.02.075c0-.004.005-.004.006-.004a.16.16 0 01.03.1l-.045-.005c.003-.027.012-.063.009-.091zm-.044-.13c-.014-.04.013-.094.01-.143a.243.243 0 00-.024-.088c-.019-.04-.046-.075-.051-.12-.005-.063.037-.097.05-.15.01-.02.01-.042.014-.067v-.004c.01-.001.01.009.01.022.003.019.008.029.013.044a.066.066 0 01.008.02c.002.018-.008.038-.01.055-.003.023.008.05.008.067 0 .016-.005.03-.005.044-.006.03-.014.066-.009.1.002.017.01.038.015.056.01.034.024.066.02.112 0 .035-.021.07-.021.107l-.027-.055h-.001zm-.138-.055a.262.262 0 00-.001-.054c0-.008-.009-.017-.005-.024 0-.008.006-.012.009-.022.017-.05-.03-.088-.051-.118a.258.258 0 01-.05-.209l.004-.005c.024.026.04.06.065.08-.004.047-.005.098.017.134.008.017.02.03.03.047.01.017.027.036.03.05.006.028-.011.05-.02.07-.02.054-.01.132.016.166.012.016.042.027.04.048 0 .02-.023.025-.033.042a.167.167 0 01-.055-.071.171.171 0 01-.017-.063c.004-.024.02-.046.022-.071zm.046-1.121a.062.062 0 00-.009.039.138.138 0 00-.03.052c-.041.005-.065.027-.08.063-.007.017-.005.037-.004.058.002.008.005.02.005.03a.23.23 0 01-.02.081c-.01.024-.034.044-.05.068l-.016.026a.16.16 0 00.01.106c.007.01.02.019.023.027v.03a.112.112 0 01.005.031c0 .03-.012.058-.015.083a.409.409 0 00.048.208c.004.01.013.017.016.03a.16.16 0 01-.074-.062c-.017-.034-.016-.074-.017-.123-.004-.046-.022-.085-.033-.127-.005-.026-.006-.046-.008-.07-.002-.024.004-.046.007-.071.01-.064.022-.137.043-.198.008-.046.032-.075.046-.115a.539.539 0 01.129-.17c.013 0 .018-.007.03-.008.005.003-.004.007-.007.012h.001zm.04.178c0-.008.002-.01.005-.015.003 0 .003 0 0 0a.974.974 0 00-.035.114.027.027 0 010-.024c.004-.025.014-.066.03-.076zm-.159.284c.006-.02.022-.035.03-.054a.35.35 0 00.026-.112v-.007c.002 0 .002 0 .004.004.029.098-.03.188-.029.277 0 .03.01.06.022.085.006.02.02.039.009.07-.022-.017-.032-.04-.05-.067a.41.41 0 01-.017-.03.326.326 0 01.005-.166zm.041-.293c.013-.007.022-.018.042-.015a.277.277 0 00-.023.113c-.005-.005-.014-.007-.02-.013-.02-.022-.014-.066 0-.085h.001zm-.087.24h.005c.022-.043.053-.079.065-.131.005 0 .006.005.01.005-.002.096-.077.138-.087.223-.015-.019-.014-.063.001-.076v.004c.009 0-.001-.024.005-.01.005-.004-.003-.008 0-.014h.001zm.163-.031c0 .025.002.055-.005.082-.008.028-.028.046-.032.078v.016c-.001.007-.006.012-.008.018-.004.026.003.05.003.082a.212.212 0 01-.015-.146c.009-.036.026-.066.027-.102.008-.064-.001-.14.01-.201.01-.036.032-.058.05-.085.01-.004.015-.019.028-.017.001-.004-.007 0-.005-.004.044-.03.105-.064.175-.044a.47.47 0 01-.075.008c-.06.024-.115.057-.144.118l-.004.008a.272.272 0 00-.015.073c-.007.042.01.077.01.116zm.605-.095a.335.335 0 01-.025.188c-.017.034-.04.062-.061.095.003.012.012.037 0 .049a.203.203 0 01-.069-.024c.004.035.04.039.065.052.001.01-.01.022-.016.024-.008.001-.039-.022-.049-.025-.005-.004-.009-.013-.013-.013 0 .034.027.044.042.06-.005.01-.015.025-.025.025-.027.004-.041-.046-.05-.07-.017.008-.012.033-.018.05-.043-.015-.058-.06-.055-.107.01-.039.082-.03.094-.071a.078.078 0 00-.007-.037c-.005-.013-.007-.024-.017-.026-.008.014.013.032 0 .048-.008.005-.015 0-.023 0-.03-.004-.053.01-.08.007-.013-.001-.026-.007-.04-.007-.01 0-.02.001-.03-.005-.004-.015.01-.03-.006-.037a.059.059 0 00-.01.049c.001.015.017.032.027.039.024.013.06.013.07.034.005.012.005.03.001.04-.003.041-.037.068-.071.078.005-.012.008-.049-.006-.047-.01 0-.014.027-.022.039-.013.02-.043.037-.06.005.024-.017.048-.027.058-.058a.185.185 0 00-.05.015c-.02.009-.033.02-.033-.015a.095.095 0 00.071-.047c-.02.007-.046.018-.075.012-.003-.005.002-.012 0-.015a.358.358 0 01-.083-.224.434.434 0 01.06-.217c.01-.018.02-.034.04-.042a.236.236 0 01.094-.015c.036.003.06.02.088.027.038.01.063-.017.094-.02a.145.145 0 01.109.03c.01.005.018.02.029.03a.233.233 0 01.054.126h-.002zm-.024.57c.005.009.014.014.02.024.008.02.008.087-.01.093.004-.083-.074-.118-.055-.203a.308.308 0 01.019-.056c.013-.04.034-.086.02-.139 0-.003-.006-.012-.006-.018a.21.21 0 01.032-.061c.012.005.012.023.014.032.01.03.029.066.03.103a.222.222 0 01-.029.1c-.018.027-.047.047-.044.091.004.014.006.024.01.034zm.031-.645l-.001-.007c.001.003.004.003.005.003.034.017.047.061.05.107.002.032-.013.068-.015.097a.12.12 0 00.02.083c.008.01.028.018.028.039 0 .02-.017.034-.02.05-.013-.015-.016-.037-.02-.055-.006-.02-.013-.041-.014-.061-.002-.02.003-.034.005-.055a.45.45 0 00-.038-.201zm.189.427c0 .02-.009.044-.016.06-.015.023-.037.03-.045.055-.01.036.015.07.008.102-.01 0-.015-.014-.019-.022a.079.079 0 01-.015-.027c-.014-.048.02-.115.005-.168-.001-.01-.012-.022-.014-.029 0-.025.024-.046.02-.078 0-.02-.012-.028-.021-.044-.01-.012-.02-.018-.02-.035 0-.027.018-.05.023-.076a.176.176 0 00-.019-.124h.005a.252.252 0 01.076.168c0 .042-.013.086-.008.128.005.033.037.053.04.09zm-.11-.57c-.008-.002.008-.01.008-.014.018-.017.047.003.05.02.021.058-.026.127-.07.134-.02.003-.05-.004-.052-.017.005-.008.01-.004.016-.005a.127.127 0 00.083-.044c.013-.036-.004-.075-.036-.075zm-.013.004c0 .01-.009.017-.005.027 0 .008.009.012.009.017 0 .008-.03.022-.041.027-.03.01-.073.002-.085-.015a.253.253 0 00.122-.056zm-.37-.088c0-.015.018-.01.023-.019.034.004-.008.032-.024.019zm.034.024c.023-.005.03-.026.052-.026.015.024-.017.036-.025.051-.017.009-.033.022-.065.019-.02-.004-.04-.015-.06-.024-.047-.02-.108-.007-.147.009-.038.015-.063.04-.09.064.022-.07.064-.108.13-.119a.384.384 0 01.075.005c.046.005.092.03.13.02zm-.646-1.037c.001-.01.017-.013.029-.015.035-.01.078-.024.119-.024a.03.03 0 01.007.017v.004c-.024.009-.053.01-.08.014-.025.003-.05.013-.073.01l-.001-.006h-.001zm-.1.088c-.002-.007-.008-.01-.01-.017.02-.013.037-.04.06-.049h.003c.005.056.01.07.01.07.003.017.005.037.01.054.005.024.012.08.017.103.006.038.03.129.042.163.04.107.087.207.133.301-.004.014-.016.026-.013.043.002.012.013.013.017.022-.003.015-.012.022-.008.035.003.029.047.04.073.04.008.013.013.028.02.047.004.01.019.037.017.05-.001.01-.024.019-.03.027-.02.016-.033.036-.048.058a.773.773 0 00-.093.163.094.094 0 01-.02.035c.01-.396-.023-.776-.181-1.023l.001-.029h.002v-.045c0-.015 0-.034-.004-.048h.002zm.103 1.699c-.007-.004 0-.014.002-.02l.015-.071c0-.016 0-.03.01-.04 0 0 0 .002.003.002-.008.025-.008.059-.013.085-.005.016-.006.033-.017.044zm.041-.078l.001-.004h.005c.03.072.009.163.048.222.022.04.066.054.117.071.022.017.008.041.01.065 0 .015.012.029.015.047a.216.216 0 01-.008.054c-.01-.008-.01-.027-.016-.039-.008-.016-.018-.037-.032-.05-.029-.032-.08-.04-.11-.073a.258.258 0 01-.058-.15c-.002-.051.027-.089.027-.143h.001zm.302.534c-.004.007.004.022-.004.023-.013-.004-.016-.019-.02-.029a.172.172 0 01-.009-.105c.014-.044.03-.088.015-.137-.007-.02-.023-.04-.037-.064-.017-.032-.036-.06-.029-.112.005-.035.019-.076.02-.118.002-.046 0-.088.013-.126a.262.262 0 01.027-.059c.009-.004.012.017.015.027.01.03.019.08.01.119-.007.025-.02.045-.029.07a.303.303 0 00-.009.128c.004.019.013.037.02.054.014.037.045.071.05.112a.181.181 0 01-.001.057c-.001.04-.024.066-.012.11.005.02.022.041.032.061a.192.192 0 01-.001.166c-.02-.005-.03-.023-.041-.038.032-.038.015-.105-.009-.14zm.373-.11c0-.008.005-.02.005-.028 0-.017-.013-.032-.01-.052.002-.019.016-.034.02-.054 0-.022-.013-.034-.013-.058-.003-.01.005-.03.005-.044-.001-.007-.01-.063-.02-.063-.014-.001-.02.032-.02.05a.1.1 0 00-.002.033c.002.017.014.028.02.044.008.03-.013.06-.013.083 0 .014.006.027.006.038.004.023-.012.045-.012.067.003.019.02.034.025.053.019.07-.027.12-.05.162-.013.014-.032.017-.049.036-.015.02-.018.06-.06.039.004-.017.025-.019.032-.034.022-.017.046-.034.054-.064.01-.041-.004-.097-.004-.15 0-.025.01-.042.017-.066a.359.359 0 00.017-.067c.005-.048-.024-.09-.019-.127.006-.017.024-.03.026-.048 0-.015-.007-.023-.012-.032-.019.005-.044 0-.061.005-.004.01-.008.019-.005.03 0 .01.012.017.015.028.007.017.01.034.014.054.003.017.013.034.013.052.001.053-.036.097-.032.156a.042.042 0 01-.014-.024c-.003-.008-.006-.018-.003-.027 0-.017.013-.027.015-.042.001-.013-.004-.026-.001-.04.003-.021.02-.036.02-.052 0-.015-.012-.023-.017-.034 0-.033-.019-.05-.017-.09 0-.003-.006-.007-.006-.013-.019-.01-.043-.001-.058-.013-.015-.014-.012-.053-.026-.07.013-.008.027-.007.045-.01.012-.005.027-.015.037-.017.013 0 .03.01.044.01.014-.005.022-.01.032-.01.014 0 .03.013.044.014.008.002.01 0 .014 0 .022.003.032.014.044.025.04-.013.056-.048.073-.081-.005.049-.035.08-.029.133.005.046.04.075.05.114l.005.04c.006.07-.028.104-.05.154-.013-.01-.029-.03-.029-.05 0-.029.03-.053.035-.081.007-.046-.016-.087-.026-.12-.005-.018-.009-.035-.014-.047-.005-.007-.012-.012-.015-.02-.007-.01-.005-.027-.019-.034-.012.005-.013.014-.015.024 0 .03.036.06.046.086.005.01.006.026.012.041a.1.1 0 01.013.061c-.006.027-.038.048-.041.076a.134.134 0 00.014.056c.007.012.017.022.023.032a.18.18 0 01.017.056c.005.017.014.04.014.058.001.013-.004.047-.005.064a.119.119 0 01-.029.054c-.013.02-.017.026-.04.038-.016.008-.033.012-.053.018-.009.002-.02.008-.028.01-.017.004-.028-.012-.049-.01.008-.052.053-.057.078-.09a.175.175 0 00.043-.133c-.004-.032-.022-.061-.022-.098v-.002zm.455.1c-.001.008-.009.018-.014.026a.26.26 0 01-.04.072c-.033.04-.087.066-.133.101-.013.01-.025.026-.04.037a.17.17 0 01-.042.036c-.006.004-.013.008-.023.004-.008-.014.01-.014.017-.016.006-.01.018-.013.023-.022.004-.003.002-.013.005-.02.014-.027.046-.042.067-.07a.101.101 0 00.017-.043c.003-.008 0-.017.006-.024.01-.015.029-.02.04-.032l.026-.034a.282.282 0 00.019-.053c.01-.056-.015-.098-.005-.169-.022.024-.013.076-.013.113a.143.143 0 01-.056.112c.004-.019-.007-.035-.007-.05.004-.023.02-.036.03-.051.018-.03.004-.068.01-.104.003-.017.012-.032.015-.047a.117.117 0 000-.05c-.002-.01-.01-.023-.01-.035 0-.013.013-.027.01-.049 0-.014-.008-.027-.008-.04a.092.092 0 01.015-.058c.005-.004.01-.004.016-.008.003-.005.01-.02.017-.017.017.008.03.068.032.092a.53.53 0 01-.001.11c-.001.024-.004.052-.001.076 0 .05.025.087.028.132a.216.216 0 010 .08zm-3.053-3.181c.015-.009.034-.017.048-.029-.006.017-.026.029-.046.034 0-.001-.002-.001-.002-.005zm-.036.22c-.01-.037-.012-.085-.02-.118.009.02.017.047.024.072.005.027.012.056.008.08-.008-.007-.01-.022-.012-.034zm-.054-.21c.004-.01.017-.013.024-.017.003.005-.006.008-.009.012.008.026.008.056.027.075-.01 0-.013.007-.022.007 0-.013-.023-.06-.02-.076zm-.01-.078a1.64 1.64 0 00-.065-.108.717.717 0 00.02-.12c.007 0 .003.008.004.017.01.03.036.067.005.08.01.05.032.094.044.146-.006-.003-.005-.01-.009-.015h.001zm-.029.15a.195.195 0 01-.076-.006c-.014-.007-.026-.017-.04-.027-.027-.05-.016-.139-.013-.205.009.027.004.08.006.119a.2.2 0 00.014.068c.009.022.039.037.066.042.012.004.027 0 .04-.004.01 0 .021-.008.025.002 0 .008-.014.008-.022.01zm3.728 3.401a.24.24 0 01-.038-.012c-.025-.005-.06-.005-.086-.005-.026-.003-.051-.003-.08-.01-.028-.005-.055-.007-.08-.015-.02-.007-.043-.024-.063-.035a2.396 2.396 0 00-.23-.104c.018-.027.036-.047.05-.073.017-.034.02-.076.027-.122.005-.027.014-.057.015-.08a.828.828 0 00-.003-.158c-.015-.158.001-.312-.008-.46a.659.659 0 00-.037-.18c-.019-.058-.032-.12-.053-.17a.216.216 0 00-.03-.054c-.01-.013-.03-.024-.038-.037 0-.008.002-.012 0-.022-.008-.02-.033-.027-.048-.04-.013-.008-.02-.018-.03-.024a.115.115 0 00-.037-.02c-.01-.003-.022-.003-.032-.009-.01-.004-.014-.012-.02-.017-.033-.02-.065-.01-.109-.02-.007 0-.012-.008-.02-.008-.055-.017-.131-.003-.19-.022-.065-.015-.12-.05-.172-.067.003-.03-.02-.038-.038-.048.002-.017.014-.046-.007-.057h-.024c-.029-.104-.046-.205-.073-.304-.012-.049-.035-.096-.044-.143-.005-.026-.006-.051-.012-.084-.001-.025-.01-.052-.012-.08-.01-.043-.007-.08-.01-.123.013-.018.046-.039.044-.07a.03.03 0 00-.002-.016c-.004-.019-.017-.037-.027-.054-.025-.06-.035-.13-.049-.2-.014-.073-.024-.14-.047-.201-.008-.02-.017-.041-.023-.06 0-.001-.003-.001-.003-.003-.006-.043-.024-.065-.063-.072-.005-.013-.015-.023-.024-.038-.005-.01-.022-.031-.022-.04-.005-.023.004-.04-.005-.055-.001-.01-.013-.014-.015-.022-.002-.009.003-.017.001-.026-.001-.012-.012-.013-.017-.025.017-.026 0-.055-.014-.07.014-.02 0-.04-.012-.054.015-.02-.004-.044-.012-.06a.054.054 0 00-.014-.058c.014-.033-.005-.053-.008-.072v-.018c0-.01-.009-.017-.013-.024-.001-.01-.001-.019-.005-.027a.16.16 0 00-.008-.032c-.009-.061-.017-.098-.055-.14a.267.267 0 00-.202-.082h-.001a.327.327 0 00-.2.061.188.188 0 00-.077.107.036.036 0 01-.009.012.23.23 0 00-.03.102c-.009.022-.015.045-.022.066-.004.012-.002.023-.005.037 0 .005-.005.012-.008.019 0 .007.004.013.004.022-.02.013-.017.039-.014.064-.015.01-.017.044-.003.054-.02.017-.02.058-.005.078-.004.014-.012.017-.012.03 0 .013.008.02.008.03-.001.01-.012.016-.015.027-.005.02 0 .03.007.042-.012.017-.027.039-.017.066-.005.008-.012.012-.015.022-.004.005 0 .012-.004.02-.003.015-.02.026-.03.037a.464.464 0 00-.076.16c-.036.155-.069.328-.111.477-.009.03-.012.06-.029.088-.08-.029-.175-.04-.263-.06-.004-.016-.002-.033-.014-.042-.015-.008-.036.005-.053.01-.007-.021-.042-.031-.062-.018-.01-.007-.022-.01-.031-.019a.185.185 0 00-.063-.101c-.013-.009-.034-.017-.05-.029-.028-.015-.052-.029-.082-.039-.019-.007-.058-.03-.067-.047 0-.005 0-.016-.003-.022a20.656 20.656 0 01-.078-.3c-.004-.017-.01-.036-.009-.047.001-.01.007-.01.009-.02 0-.009-.005-.026-.006-.038-.013-.043-.026-.08-.031-.122a.21.21 0 00.11-.053c.016-.027.034-.047.031-.091-.01-.112-.097-.193-.104-.313-.001-.026.008-.05-.005-.072-.013.002-.02.02-.024.033-.032.093.023.176.036.257.008.037-.001.078-.025.1-.013.01-.036.032-.051.024a.252.252 0 01-.013-.127c-.013-.019.013-.04.007-.063-.002-.009-.017-.022-.026-.03-.006-.013-.015-.022-.022-.03a1.244 1.244 0 01-.081-.157c-.01-.017-.013-.04-.033-.047-.012.01-.005.024-.003.034.007.039.01.076.013.12 0 .03 0 .085-.006.119-.004.01-.012.022-.01.034.004.007.014.012.017.018l.017.03a.45.45 0 01.06.114.026.026 0 00-.014.029c-.061.024-.097-.019-.102-.071-.005-.048 0-.1-.009-.15a.283.283 0 00-.056-.138c-.008-.01-.024-.027-.04-.02 0 .015.012.025.018.038.03.089.017.234.019.34a.118.118 0 00.056.1c.04.024.093.01.143 0 .013.038.027.09.037.133.004.01.004.02.008.027.003.004.013.008.016.014.008.007.01.034.013.049l.088.352c0 .01-.01.014-.013.02-.006.017-.004.032-.004.054v.026c0 .01.01.019.014.029.003.022 0 .042.017.054 0 .024.013.046.025.06.01.009.024.013.029.021.006.01.012.04.017.058a.551.551 0 00.014.06c.03.12.056.236.088.356.1.397.197.791.292 1.186.019.081.044.157.054.24a.315.315 0 00-.052.017.976.976 0 00-.209.102l-.022.013c-.104.07-.18.188-.247.298a.9.9 0 01-.03.05c-.005.01-.006.022-.013.034-.004.01-.013.018-.017.03a.535.535 0 00-.044.152.378.378 0 00.02.192c-.03-.002-.096.01-.098.039 0 .017.02.032.024.042-.015.007-.027.008-.05.005a.293.293 0 00-.122.005c-.01.007-.027.018-.023.034 0 .027.059.034.086.034.013 0 .022-.005.03-.005a.194.194 0 01.072.007c.01.005.01.009.015.01h.023c.006 0 .013.005.022.005h.074c-.005.007-.012.013-.02.02.004.01 0 .015.001.03.014.023.03.031.058.038.053.013.097-.013.148-.008.035.004.073.024.119.016-.017.018-.029.056-.014.08.009.012.022.012.033.02a.64.64 0 00.119 0c.027 0 .076-.016.1 0 .008.006.013.021.022.033.001.004.009.009.017.014.004.003.01.012.013.015.017.01.067.018.077.037.001.001-.005.005.001.007-.001.044.001.092.022.124.01.014.027.02.034.035.024.014.046.033.073.05.015.01.036.015.055.023.017.01.03.027.044.041l.003-.001.004-.001c-.008.003-.008-.014-.008-.022 0-.024.01-.048.015-.07.03-.144-.053-.249-.12-.315-.008-.01-.02-.015-.023-.027.034-.007.054-.024.083-.039.013.05.022.105.033.16.004.016.008.038.02.045.013.008.042-.005.047-.012.014-.019-.003-.054-.008-.076a2.617 2.617 0 00-.026-.107c-.003-.015-.015-.046-.01-.058.005-.017.058-.018.09-.017.017.002.043.008.063.008.026-.004.048-.022.077-.013.013.009.018.024.034.027.042.013.095.01.14 0l.06-.018c.03-.009.061-.009.082-.022.02-.005.063-.013.064-.03 0-.01-.013-.01-.01-.023.017-.005.034-.012.053-.012.027-.001.054.007.078.007.014.002.03-.007.044-.003.031.003.062.017.096.012.015-.004.03-.01.052-.012.02-.004.043.005.065.007a.76.76 0 00.09-.004.355.355 0 00.112-.027c.007-.003.02-.017.029-.017.008-.001.029.005.044.009.017 0 .035.004.05.004.016 0 .045-.004.047-.014.005-.01-.015-.027-.022-.032-.04-.024-.117-.024-.169-.015-.012.003-.028.012-.037 0 .001-.014.019-.01.029-.017.009-.005.012-.014.02-.019a.406.406 0 00.14.001c.023.017.054.02.09.024.003.007-.002.015.003.022.02.015.055.019.087.019.088.005.187.022.272.027.036.028.107.022.155.037-.014.005-.023.015-.033.022a.389.389 0 00-.194.007c-.022.01-.032.036-.012.053.019.018.063.023.102.023.04 0 .078.009.114 0a.104.104 0 00.044-.018c.01-.005.012-.017.012-.027.036 0 .14.005.145-.033.001-.012-.01-.015-.012-.023.018.003.022-.022.039-.027h.025c.01-.004.026-.008.034-.01.015-.01.019-.022.032-.034.022 0 .043.007.065-.004.022-.008.039-.032.064-.037.026-.008.048.001.074.007.023.005.05.014.076.014.022.003.058 0 .076-.013.014-.005.024-.018.038-.023.024-.008.054-.005.07-.026v-.018c.047-.02.069-.053.062-.117-.005-.061-.051-.1-.107-.112h.003zm-1.363.417c-.014.001-.027.01-.037.009-.009 0-.017-.008-.03-.013a.253.253 0 00-.058-.01c-.026 0-.102.01-.065.041.012.012.044.017.064.022a.018.018 0 00.004.03c.024.02.095.02.133.024.025 0 .066-.005.098 0 .012.003.032.013.046.014a.121.121 0 00.087-.02c.015-.012.029-.02.022-.04-.029-.023-.075-.028-.126-.031-.015-.039-.093-.037-.137-.026zm-.177-.488c.016-.015.04-.015.055-.027-.027-.029-.112-.025-.107.032.005.024.058.03.052-.005zm.405-.694c-.002.017.015.034.029.034.017.004.037-.014.032-.032-.014-.008-.046-.005-.061-.002zm-.12-.435c.021-.008.047.01.026.022a.02.02 0 01-.015-.004c.004.022.036.02.05.01.005.004.01.004.007.01-.029.01-.076 0-.068-.04v.002zm.05-.029c-.035-.019-.073.007-.104-.001-.006 0-.013-.01-.018-.01 0 .03.013.044.04.047.014.041.057.055.114.053.006.005.004.012.013.013.006 0 .015-.012.015-.018a.09.09 0 00-.014-.038c-.005-.015-.034-.037-.046-.045v-.001zm.231.058c-.005 0-.007.007-.012.003-.001-.01.006-.007.01-.012 0-.017.007-.027.024-.027a.019.019 0 010 .032c.022.007.034-.014.035-.034.01-.001.012.004.017.009-.006.028-.044.044-.075.028h.001zm.092-.065c-.022.002-.048-.015-.07-.012-.017.001-.037.017-.05.03a.194.194 0 00-.021.07c0 .003.001.01.01.013.008.005.007-.012.012-.013.046.003.078.003.102-.014.014-.01.02-.03.027-.049.006-.012.022-.025.017-.042l-.005-.001c-.007.005-.012.017-.022.018zm-.187-.005a.042.042 0 01-.019-.025c-.007.025-.022.029-.035.032-.013.004-.02-.007-.026-.007-.005.035.053.025.065.007.01.014.05.029.054-.004-.014.008-.027.004-.039-.003zm-1.048-1.075c-.013.012-.019.012-.03-.005a.08.08 0 01-.018-.057.087.087 0 01.038-.055s0 .002.003.002c.038.023.041.08.008.115h-.001zm-.016-.124c-.034.004-.059.019-.07.041a.07.07 0 00-.003.063.1.1 0 00.075.047.1.1 0 00.078-.044c.025-.057-.02-.11-.08-.106zm-.005-1.046v-.005c.005-.004.014 0 .02.001 0 .008-.018.005-.02.004zm.08-.048c-.005 0-.008.008-.013.008-.006 0-.015-.005-.022-.005-.01-.001-.019.003-.026.005-.022-.017-.04.007-.056.003-.012 0-.012-.008-.02-.008-.006.005-.005.018 0 .023.007.004.019 0 .025.002.008.01.008.03.024.037a.09.09 0 00.051 0c.012-.007.019-.022.022-.037.007-.002.016-.005.03-.005.002-.015-.003-.022-.014-.022" fill="#191917"/><path d="M27.998 10.725l-2.224 16.657 2.228-1.184-.004-15.473zM23.241 29.67l-8.586-2.791 9.082 5.21-.496-2.42zm18.098-2.795L31 27.985l1.778 1.676 8.56-2.786zm-10.357 8.341l5.457 7.375-4.458-9.556-1 2.18zM19.555 42.6l7.952-7.025-2.485-.363-5.467 7.387zm8.753-7.205l2.534-.364 1.02-2.25-3.554 2.614zm-4.166-2.611l1.02 2.246 2.529.365-3.55-2.61zm1.128-4.73l-1.805 1.689.505 2.443 1.3-4.132zm5.459 0l1.804 1.687-.505 2.445-1.3-4.132zm-.478-.379l-2.25-1.214-2.254 1.214h4.504z" fill="#EE7A00"/></svg>