<svg width="56" height="56" xmlns="http://www.w3.org/2000/svg"><path fill="#F26522" d="M0 0h56v56H0z"/><path d="M16.729 41.002L29.558 41c1.794-.067 3.532-.166 5.218-.725 3.454-1.123 6.048-3.07 7.072-6.204.987-3.008-1.051-6.461-4.77-6.732 3.166-.841 5.95-2.77 6.671-5.305 1.271-4.455-2.464-6.108-7.236-6.034 2.869.61 4.57 2.362 3.63 5.653-.723 2.537-3.442 4.505-6.63 5.416 3.764.256 5.761 3.215 4.891 6.257-.81 2.84-3.562 5.133-7.016 6.259-1.685.558-3.425.649-5.218.716l-9.446.366.005.335zm.036-1.306l6.06-.28c1.79-.065 3.53-.158 5.217-.717 3.455-1.126 6.348-3.341 7.159-6.179.866-3.044-1.251-5.996-5.014-6.251l.018-.067c3.17-.842 5.887-2.812 6.611-5.347C38.166 16.125 34.05 15 28.865 15H17.88L12 35.722l.077-.006c.115-.008.228-.01.34-.01L21.544 16.4l.214.022-8.093 19.456c.082.023.164.049.246.075l14.742-19.812.251.068L14.76 36.323c.063.037.107.071.153.108.027.022.055.044.09.069l19.933-17.396.169.2-19.367 17.8a.938.938 0 01.125.157c.018.028.04.061.077.112l16.662-8.305.104.245-16.292 8.819c.065.135.078.174.126.316l15.51-3.638-.01.24-15.301 4.304.002.02c.015.13.02.178.023.322z" fill="#fff"/></svg>