<svg xmlns="http://www.w3.org/2000/svg" width="56" height="56"><path fill="#F0F3FA" d="M0 0h56v56H0z"/><path fill-rule="evenodd" d="M28.2 10H28L15.95 22H10v6l12 12.05V46h6l12.05-12H46v-6L34 15.96V10h-5.8zM28 43.53l10-9.5V28h-1v5.53l-9 9v1zm0-2.85l7-6.65V28h-1v5.53l-6 6v1.15zM28 34l6-6-6-6-6 6v-5.5l6-6v-1.15L21 22v6h1.03L28 34zm-10-6h1v-5.5l9-9v-1.3L18 22v6zm-1.5 0h-1.15L23 35h5v-1h-4.7l-6.8-6zm-3 0h-1l10 10H28v-1h-5l-9.5-9zM28 22h5.2l6.58 6h1.11l-7.59-7H28v1zm0-3h5.3l9.37 9h.97L33.5 18H28v1z" fill="#CC103D"/></svg>