<svg width="56" height="56" xmlns="http://www.w3.org/2000/svg"><path fill="#264898" d="M0 0h56v56H0z"/><path d="M13 18.566v5.872h1.51c.888 0 1.506-.438 1.856-1.313.191-.48.287-1.052.287-1.715 0-.915-.145-1.617-.433-2.106-.285-.492-.855-.738-1.71-.738H13zm1.828-1.563c.557.009 1.021.074 1.392.196a2.97 2.97 0 011.532 1.141c.313.448.526.932.64 1.453.114.52.171 1.017.171 1.489 0 1.196-.24 2.21-.72 3.04C17.192 25.44 16.187 26 14.828 26H11v-8.997h3.828zm4.767 4.572c0-1.57.42-2.781 1.263-3.632.733-.74 1.664-1.11 2.796-1.11 1.513 0 2.62.496 3.32 1.489.386.557.594 1.117.622 1.678h-1.88c-.122-.431-.278-.757-.47-.976-.341-.39-.848-.586-1.52-.586-.683 0-1.222.276-1.617.83-.394.55-.592 1.328-.592 2.337 0 1.01.208 1.766.623 2.271.419.5.95.75 1.593.75.66 0 1.162-.215 1.508-.646.19-.232.35-.58.476-1.044h1.861c-.163.98-.58 1.778-1.251 2.393-.667.614-1.524.921-2.57.921-1.294 0-2.31-.415-3.051-1.245-.741-.834-1.111-1.977-1.111-3.43zM31 18.566v1.984h2.053c.395 0 .714-.074.958-.22.248-.15.372-.415.372-.794 0-.419-.162-.695-.488-.83-.28-.093-.639-.14-1.074-.14H31zM31 22v2.438h2.053c.395 0 .702-.053.922-.16.398-.194.598-.569.598-1.122 0-.468-.194-.828-.58-1.003-.216-.098-.519-.149-.91-.153H31zm2.42-4.997c1.102.017 1.883.336 2.343.959.277.382.415.84.415 1.373 0 .55-.138.99-.415 1.324-.155.188-.383.358-.684.513.46.167.806.431 1.038.794.236.362.354.801.354 1.318a2.62 2.62 0 01-.403 1.434 2.487 2.487 0 01-1.666 1.16c-.39.081-.816.122-1.276.122H29v-8.997h4.42zM13 30.566v1.984h1.987c.394 0 .714-.074.958-.22.564-.342.492-1.373-.116-1.624-.28-.093-.639-.14-1.074-.14H13zM13 34v2.438h1.987c.394 0 .701-.053.921-.16.779-.38.839-1.754.019-2.125-.216-.098-.52-.149-.91-.153H13zm2.353-4.997c1.103.017 1.884.336 2.344.959.276.382.415.84.415 1.373 0 .55-.139.99-.415 1.324-.155.188-.383.358-.684.513.46.167.806.431 1.037.794.236.362.354.801.354 1.318a2.62 2.62 0 01-.402 1.434 2.487 2.487 0 01-1.667 1.16c-.39.081-.815.122-1.275.122H11v-8.997h4.353zm7.092 5.447h2.283l-1.123-3.39-1.16 3.39zm.116-5.447h2.124L27.871 38h-2.038l-.58-2h-3.314l-.623 2H19.35l3.21-8.997zm6.439 0h1.96l4.04 6.28v-6.28h2V38h-2l-4-6.39V38h-2v-8.997zm10 0h2v3.705l3.473-3.705h2.43l-3.687 3.705L47.09 38h-2.417l-2.777-3.93-.897.921V38h-2v-8.997z" fill="#fff"/></svg>