<svg xmlns="http://www.w3.org/2000/svg" width="56" height="56"><path fill="#79036F" d="M0 0h56v56H0z"/><path d="M28.96 10.05c.94.24 1.03 1.14 1.04 1.3a2.5 2.5 0 00-1.21-.27c-.5 0-.95.07-1.25.25l-.1.05c.14-1.06 1.06-1.36 1.06-1.36v-.9c.27-.27.46 0 .46 0v.93zm4.78 3.16c.14-.22.17-.22.17-.22s-.2-.05-.33.1a1.3 1.3 0 00-.08.1c-.05.07-.07.1-.16.13 0 0 .26.11.4-.11zm.65-.78l-.22-.47-.24.49s-.19.45.24.45.22-.47.22-.47zm-.44.86l.22.25.2-.26s.17-.26-.2-.26c-.4 0-.22.27-.22.27zm.95-1.02c0-.15.02-.28.08-.32 0 0-.38-.03-.45.34-.02.1 0 .18 0 .24.01.1.02.18-.06.31 0 0 .22-.02.32-.15.08-.1.1-.27.1-.42zm-1.11.02c-.07-.37-.47-.34-.47-.34.08.04.09.17.1.33.01.15.03.31.1.41.1.13.33.15.33.15-.08-.13-.07-.21-.06-.31v-.24zm.96.8c-.12-.15-.33-.1-.33-.1s.02 0 .18.22c.13.22.4.11.4.11-.1-.03-.12-.06-.17-.13a1.3 1.3 0 00-.08-.1zm-4.37 8.48l-.07-.14c-1.36 2.86-2.95 6.05-3.72 6.96a14 14 0 01-.69 7.73l-.01.03c.24.4.44.9.54 1.52l.05.5 1.9-4.37v.03l.03-.03 1.92 4.24.04-.37c.1-.63.3-1.12.54-1.52l-.01-.03-.03-.09.04-.07a17.55 17.55 0 01-.95-5.38c.03-.95.16-1.94.42-2.95l.01-.13.1-.27c.42-1.31 1.06-3.23-.08-5.58l-.03-.08zm-2 13.7l-1.58 3.65s-1.2 3.5 1.59 3.5c2.85 0 1.53-3.57 1.53-3.57l-1.53-3.58zm1.43 9.67L28.38 47l-1.39-2.02s-1.21-2.02 1.39-2.02c2.52 0 1.43 1.98 1.43 1.98zm4.04-9.83s-2.59-.13-3.05 2.63a8.4 8.4 0 000 1.84c.08.77.13 1.37-.4 2.44 0 0 1.48-.18 2.16-1.18.55-.78.64-2.1.72-3.3.08-1.1.15-2.1.57-2.43zm-7.94 2.63c-.47-2.76-3.04-2.63-3.04-2.63.42.33.48 1.32.56 2.42.08 1.2.17 2.52.73 3.31.67 1 2.14 1.18 2.14 1.18a3.81 3.81 0 01-.4-2.44c.05-.49.1-1.05 0-1.84zm4.17 4.99s1.36-.34 2.18.74c.28.35.45.63.6.86.29.47.45.73 1.05 1 0 0-1.71.8-2.67-.9-.97-1.7-1.16-1.7-1.16-1.7zm-5.53.74c.83-1.08 2.18-.74 2.18-.74s-.19 0-1.15 1.7-2.69.9-2.69.9c.6-.27.77-.53 1.06-1 .15-.23.32-.51.6-.86zm5.24-31.3c-.21-.77-1.16-.63-1.16-.63-.66.04-.77.15-1.22 1.22-.25.6-.38.67-.54.76-.13.07-.27.15-.48.5-.47.76.12 1 .26.96l.2-.15c.18-.13.44-.33.6-.38.12-.03.25.1.42.25.2.2.46.44.76.46.37.02.62-.23.82-.44.09-.1.17-.18.24-.22.16-.1.43.12.64.3.13.1.24.2.3.2.2.05.52-.47-.14-1.25-.47-.56-.5-.73-.58-1.08l-.12-.5zm-7.39.82s-.02 0-.16.22c-.15.22-.41.11-.41.11.09-.03.11-.06.15-.12l.1-.12c.12-.14.32-.1.32-.1zm.25-1.03l.23.47s.2.47-.23.47c-.41 0-.23-.45-.23-.45l.23-.49zm0 1.58l-.2-.25s-.19-.27.2-.27c.38 0 .22.26.22.26l-.22.26zm.83-1.6c-.07.05-.08.18-.1.32 0 .16-.02.33-.1.43-.1.13-.33.15-.33.15.09-.14.08-.21.07-.32 0-.06-.02-.13 0-.23.07-.37.46-.34.46-.34zm-1.67 0s.4-.02.47.35a.9.9 0 010 .24c-.01.1-.02.18.06.31 0 0-.22-.02-.33-.15-.07-.1-.09-.27-.1-.42-.02-.15-.03-.28-.1-.32zm1.1 1.05s.2-.05.33.1l.09.1c.04.07.06.1.16.13 0 0-.27.11-.4-.11-.16-.22-.18-.22-.18-.22zm3.5 14.5v.05c1.25-1.63 4.31-8.4 5.4-10.86l.08-.23-1.74-.62-3.7 3.62c.2.34.5.9.33 1.32-.12.3-.24.55-.36.8l-.03.08c-1.14 2.35-.5 4.28-.06 5.58l.09.27zm8.57-12.88c-.13-.56-.77-.94-.9-.73 0 0-.3.3-.2.73.1.43.24 1.07.04 1.4a7.75 7.75 0 01-1.65 1.49l-.17.1-.79 1.7-.1.2.13.38.05.16.02.04c.11-.03.56-.17 1.11-.44l-.03-.18a2.7 2.7 0 01-.08-.35 7.7 7.7 0 00-.04-.22l.08-.04c.19-.07.39-.17.57-.33a6.41 6.41 0 001.73-2.84c.19-.65.19-.58.19-.58v-.03a.9.9 0 00.04-.46zm-2.36 5.48c-.38.2-.98.4-1.1.45l.16.55c0 .22.02.46.08.7.13.54.47 1.13.78 1.67.29.51.56.99.6 1.33.09.7.23 1.6.47 1.8.23.2.5-.93.52-1.3.02-.19.1-.15.18-.1.08.04.17.08.21-.06v-.05c.03-.11-.09-.23-.26-.4-.3-.31-.76-.79-.95-1.67-.18-.95-.48-2.1-.63-2.69l-.06-.23zm-7.61.2l.04-.22s.5.25.99.45l-.04.21-.07.3-.14.59a7.55 7.55 0 01-2.6 2.34c-.82.33-1.32.14-1.77-.03a3.55 3.55 0 00-.82-.21c-.4-.07-.7-.12-.57-.33.16-.26 1.03-1 1.95-.5 0 0 .47.6.93.53.38-.05 1.57-1.88 1.93-2.48l.1-.3.07-.35zm.83-3.63c.57-.78 2.16-1.19 3.68-1.04h.06l-3.24 3.17v.03a55.66 55.66 0 01-.22 1.26s-.8-.3-1.02-.44l.04-.21.04-.25a4.96 4.96 0 01-1.37-.69 6.4 6.4 0 01-1.73-2.83c-.2-.66-.19-.58-.19-.58v-.04a.92.92 0 01-.04-.45c.14-.57.77-.94.9-.73 0 0 .28.29.2.73-.1.43-.24 1.07-.04 1.4a8.06 8.06 0 002.52 1.99c.13-.6.28-1.16.4-1.32z" fill="#fff"/></svg>