<svg width="56" height="56" xmlns="http://www.w3.org/2000/svg"><path fill="#004E95" d="M0 0h56v56H0z"/><path d="M4 31h48v3H4v-3z" fill="#FAA519"/><path d="M42.062 28.004h.943l.483-3.02 3.33 3.02.757-4.995H46.55l-.452 3.008s-2.287-1.93-3.36-3.013l-.677 5zm-7.698-.933l.183-1.302c.494-.018 1.406.094 1.26.818-.11.596-.995.512-1.443.484zm.48-3.225c.512 0 1.022.027.911.627-.092.512-.698.546-1.103.559l.191-1.186zm-1.632 4.144c.976 0 2.317.11 3.034-.392a1.25 1.25 0 00.266-1.796c-.075-.101-.102-.143-.2-.221-.061-.05-.199-.138-.247-.22.367-.186.768-.79.549-1.448a1.099 1.099 0 00-.292-.452c-.275-.269-.602-.461-.995-.461h-1.442l-.673 4.99zM11.915 27c-.004-.174.429-2.91.465-3 1.189-.003 2.332.392 2.086 1.74-.226 1.24-1.37 1.332-2.551 1.26zm-1.089.985s2.344.102 3.103-.234c.725-.322 1.254-.97 1.419-1.941.156-.888-.156-1.82-.934-2.328-.841-.548-2.916-.48-2.916-.48l-.672 4.983zm9.642-4.155c.064-.042.128-.04.206-.043.212-.006.46.002.646.09.238.107.314.364.25.681-.12.585-.64.65-1.286.632l.184-1.36zm-1.571 4.168h1.009l.207-1.548.035-.262c.01-.086.009-.178.06-.245.176.011.219.199.385.464.104.168.93 1.575.993 1.593h.989c-.073-.174-.21-.378-.31-.547l-.934-1.605c1.41-.227 1.754-2.544-.045-2.848H19.58l-.682 4.998zM47.508 28h1.025l.225-1.662c.047-.348.007-.251.178-.467L50.716 28h1.162c-.039-.099-1.493-1.952-1.629-2.123l-.538-.7c.07-.097 1.625-1.525 1.856-1.76.121-.125.262-.227.433-.415h-1.138c-.018.008-.587.55-.624.59-.068.073-.086.087-.154.143-.21.171-.957.91-1.099.988l.229-1.721L48.23 23c-.052 0-.058.136-.076.28l-.13.946c-.163 1.16-.399 2.675-.516 3.774zM25.06 26l.754-1.016.321 1.016h-1.074zm-2.34 2h1.126l.662-1h1.923l.356 1h.996c-.034-.145-1.616-4.805-1.715-5-.059.06-.143.203-.205.29l-2.733 4.07c-.097.146-.356.499-.41.639zm16.268-2l.706-1.028L40.07 26h-1.082zm-2.385 2h1.125c.098-.173.225-.361.34-.541.061-.095.11-.167.17-.264.05-.077.117-.195.207-.195h1.868l.323 1h1.028l-1.704-5c-.104.1-2.706 3.997-2.95 4.366l-.407.634zm-21.295 0h2.938l.15-1h-1.957l.14-1h1.97l.125-1h-1.978l.141-1h1.968l.154-1-2.971.006-.68 4.994zm-8.056 0h2.939l.149-1H8.384l.14-1h1.97l.124-1H8.64l.141-1h1.969l.154-1-2.972.006L7.252 28zM4 28h1l.332-2H6.98l.171-1H5.444l.143-1h1.672l.143-.994L4.706 23 4 28zm23.993-.004l2.69.004.1-1H29.13l.572-4h-1.01l-.699 4.996z" fill="#fff"/></svg>