<svg xmlns="http://www.w3.org/2000/svg" width="56" height="56"><path fill="#224E9B" d="M0 0h56v56H0z"/><path d="M16 23.14l-3.4 7.17-1.97 1.78 4.18-.9c2.84 17.04 21.67 6.76 14.4-3.5l-.31.1c-.77 5.45-5.42 4.03-5.67 1.78l2.26-.55.93-.8-9.7-5.87-.72.79z" fill="#fff"/><path d="M16.04 23.1l-5.4 8.98 3.24-.57c2.64 15.96 23.43 8.58 14.45-3.35.19 4.3-4.43 6.23-6.03 1.62l3.2-.76-9.47-5.92z" fill="#F4B035"/><path d="M31.17 40.35l10.06.65.78-1.07-2.07-2.04c11.97-11.72-3.97-23.12-11.6-9.68 3.66-3.19 9.1.22 5.72 4.08l-2.68-2.66-.72.83.25 9.58.26.31z" fill="#fff"/><path d="M30.35 41h10.88l-1.96-2.27c12.25-12.61-4.38-22.08-10.94-10.46 3.33-2.68 8.12.68 4.75 4.55l-2.42-2.36L30.34 41z" fill="#F4B035"/><path d="M40.05 20l-5.21-9-.78.89-.43 1.41c-16.36-6.17-20.54 14.13-4.9 14.13-3.5-2.3-3.1-7.5 1.75-5.96L29.3 24.6l9.93-3.72.83-.89z" fill="#fff"/><path d="M39.22 20.89l-5.16-9-.88 2.25c-16.35-6.18-20.53 14.13-4.9 14.13-3.77-2-3.1-7.5 1.76-5.97l-1.19 3.14 10.37-4.55z" fill="#F4B035"/></svg>