<?xml version="1.0" encoding="UTF-8" standalone="no"?>
<!-- Created with Inkscape (http://www.inkscape.org/) -->

<svg
   width="150mm"
   height="150mm"
   viewBox="0 0 150 150"
   version="1.1"
   id="svg8779"
   inkscape:version="1.1.1 (3bf5ae0d25, 2021-09-20)"
   sodipodi:docname="20211015_IOBLogo.svg"
   xmlns:inkscape="http://www.inkscape.org/namespaces/inkscape"
   xmlns:sodipodi="http://sodipodi.sourceforge.net/DTD/sodipodi-0.dtd"
   xmlns="http://www.w3.org/2000/svg"
   xmlns:svg="http://www.w3.org/2000/svg">
  <sodipodi:namedview
     id="namedview8781"
     pagecolor="#ffffff"
     bordercolor="#666666"
     borderopacity="1.0"
     inkscape:pageshadow="2"
     inkscape:pageopacity="0.0"
     inkscape:pagecheckerboard="0"
     inkscape:document-units="px"
     showgrid="false"
     inkscape:zoom="0.46324355"
     inkscape:cx="201.83767"
     inkscape:cy="292.50273"
     inkscape:window-width="1366"
     inkscape:window-height="705"
     inkscape:window-x="-8"
     inkscape:window-y="-8"
     inkscape:window-maximized="1"
     inkscape:current-layer="layer1" />
  <defs
     id="defs8776" />
  <g
     inkscape:label="Layer 1"
     inkscape:groupmode="layer"
     id="layer1">
    <path
       id="path6974"
       style="color:#000000;fill:#0000ff;stroke-width:1;-inkscape-stroke:none;paint-order:fill markers stroke"
       d="m 43.195441,44.130008 -1.871253,1.871253 -28.062567,28.062567 3.743233,3.743236 26.192413,-26.192412 26.190953,26.190952 3.741407,-3.741409 z m 30.482662,33.128216 -2.418632,2.418631 3.74e-4,3.74e-4 L 43.196543,107.74053 33.841738,98.385723 15.133237,79.677219 11.3911,75.935078 c 0.0026,2.494938 -0.0042,4.990349 0,7.48501 L 43.19544,115.22443 73.678104,84.74177 Z M 43.196172,55.355328 41.32492,57.226579 18.874645,79.676854 22.616055,83.418257 43.196171,62.838145 63.775924,83.417899 67.517333,79.67649 Z M 73.678102,88.484273 43.19654,118.96583 11.391096,87.160405 l -2e-6,7.485018 31.804348,31.804317 30.482661,-30.482647 z m -30.482296,-21.903259 -1.871253,1.871253 -16.837249,16.837247 3.741408,3.741409 14.967095,-14.967092 14.967091,14.967092 3.74141,-3.741408 z M 73.678103,99.709593 43.196534,130.19116 11.391099,98.385713 l -2e-6,7.485017 31.804345,31.80433 30.482297,-30.4823 z m 33.126387,-55.580681 -1.87125,1.871254 -28.062205,28.062203 3.743234,3.743235 26.192051,-26.192049 26.19205,26.192048 3.7414,-3.74141 z m 31.80544,31.807631 -20.5783,20.57829 -7.2e-4,-7.4e-4 L 106.80559,107.73941 95.581016,96.514843 78.742303,79.676134 76.322576,77.256406 v 7.485009 l 30.481934,30.481935 31.8058,-31.805807 z m -31.80507,-20.581946 -1.87126,1.871254 -22.44954,22.449543 3.741408,3.741408 20.579392,-20.579387 20.58085,20.58085 3.74141,-3.741408 z m 31.80506,31.80581 -31.80434,31.804323 -30.483022,-30.483017 3.65e-4,7.48538 30.481567,30.481567 31.80544,-31.805447 z m -31.80507,-20.580483 -1.87125,1.871254 -16.836884,16.836884 3.7414,3.741411 14.966734,-14.96674 14.9682,14.96819 3.7414,-3.741408 z m 31.80507,31.805809 -31.80433,31.804327 -30.482666,-30.482667 -10e-7,7.485017 30.481567,30.48156 31.80545,-31.80544 z M 75.000879,34.77521 l -1.871251,1.871252 -16.83798,16.837979 3.741407,3.741407 14.967822,-14.967823 14.968189,14.968191 3.74141,-3.74141 z m 0,-11.22532 -1.871251,1.871252 -22.45064,22.450639 3.741407,3.741408 20.580483,-20.580483 20.580848,20.580849 3.74141,-3.741409 z m 3.65e-4,-11.224954 -29.934552,29.934551 3.742871,3.742869 26.193143,-26.193143 26.191314,26.191318 3.74141,-3.741409 z" />
  </g>
</svg>
