<svg width="56" height="56" xmlns="http://www.w3.org/2000/svg"><path fill="#98272A" d="M0 0h56v56H0z"/><path fill-rule="evenodd" d="M14.25 28h-1.5l.584-3.41c.13-.913-.618-1.212-1.19-.916-.783.363-1.034 1.067-1.174 1.862L10.5 28H9l1.028-6h1.47c-.066.374-.15.798-.201 1.172.659-.927 1.648-1.399 2.63-1.065.977.316 1.181 1.46 1.027 2.562L14.25 28zm27 11h-1.5l.584-3.41c.13-.913-.618-1.212-1.19-.916-.783.363-1.034 1.067-1.174 1.862L37.5 39H36l1.028-6h1.47c-.066.374-.15.798-.201 1.172.659-.926 1.648-1.399 2.63-1.065.977.316 1.181 1.46 1.027 2.562L41.25 39zm.342-11.027h-1.5l.584-3.41c.13-.913-.617-1.212-1.189-.916-.784.363-1.035 1.067-1.175 1.862l-.47 2.464h-1.5l1.029-6h1.47c-.067.374-.151.798-.202 1.172.659-.927 1.649-1.399 2.63-1.065.977.316 1.181 1.46 1.027 2.562l-.704 3.331zm-8.286-5.639l-.337 1.455c-.453-.15-1.167-.415-1.654-.253-.294.098-.288.38-.116.587.412.497 1.036.556 1.496 1.033.404.417.406 1.277 0 1.87-.651.951-1.606 1.029-2.523.951-.498-.04-.917-.155-1.416-.27l.314-1.483c.61.195.949.29 1.572.29.238 0 .673 0 .673-.29s-.415-.477-.674-.61c-.384-.213-.727-.547-1.032-.916-.324-.557-.318-1.152 0-1.707.821-1.41 2.51-1.005 3.697-.657zM23.447 22h1.517l-.521 2.26c-.089.535-.409 1.927.342 2.191 1.12.44 1.836-1.307 1.968-2.029L27.24 22h1.517l-1.088 5.995c-.509.018-.852-.02-1.378 0 .05-.338.102-.668.17-1.004-.418.443-.987.743-1.575.924-.374.098-.883.098-1.24-.08-1.032-.47-.99-1.788-.865-2.71.135-1.028.48-2.116.666-3.125zm-2.268-3h1.538l-1.538 8.996h-1.54c.074-.31.145-.763.217-1.075-.326.35-.617.62-.983.815l-.147-1.248c.831-.212 1.275-1.073 1.275-1.846-.042-.665-.355-1.196-1.128-1.144v-1.5c.666 0 1.31.497 1.585 1.058l.72-4.056zm-2.306 8.736a1.989 1.989 0 01-.44.183c-1.144.305-2.099-.279-2.523-1.347-.701-1.942.561-4.831 2.963-4.573v1.499c-.617 0-1.2.506-1.369.998-.168.49-.253 1.354.192 1.758.259.233.7.291 1.03.234M48.462 19H50l-1.538 8.996h-1.54c.074-.31.145-.763.217-1.075-.327.35-.617.62-.983.815l-.147-1.248c.83-.212 1.275-1.073 1.275-1.846-.043-.665-.355-1.196-1.128-1.144v-1.5c.666 0 1.31.497 1.584 1.058L48.461 19zm-2.306 8.736a1.989 1.989 0 01-.441.183c-1.143.305-2.098-.279-2.522-1.347-.701-1.942.56-4.831 2.963-4.573v1.499c-.617 0-1.2.506-1.369.998-.169.49-.253 1.354.191 1.758.26.233.7.291 1.031.234M7.5 19H9l-1.5 9H6m28.825-9h1.517l-1.517 9h-1.517m10.312 1.998h1.62l-.924 5.19 2.246-2.19h1.917l-2.54 2.522 2.54 3.478h-1.776l-2.468-3.333-.615 3.333H42m-6.107-3.222l-.561 3.222-1.41-.01.193-.962c-.28.288-.79.511-1.107.685l-.086-1.245c-.037.02.017-.02 0 0 .209-.115.449-.231.559-.348.262-.287.395-.494.503-.861-.382-.051-1.202.015-1.588.095l.526-1.057c.39-.038 1.13 0 1.577 0 0-.822-.922-.797-1.577-.797v-1.454c1.215-.153 2.505.058 2.953 1.194.223.576.095.941.018 1.538zm-2.885 2.935c-.3.154-.724.24-1.04.277-1.358.142-2.172-.975-1.924-2.192.272-1.195 1.85-1.474 2.878-1.501l-.526 1.057c-.302.062-.514.135-.701.27-.802.618.391 1.135 1.227.844l.086 1.245zm-.086-4.213c-.49 0-1.149.175-1.69.49l.23-1.655a10.9 10.9 0 011.46-.29M26.89 31h.877c1.118 0 2.233.455 2.233 1.794 0 .647-.25 1.255-.732 1.658-.337.198-.622.298-.957.418.86.179 1.42.918 1.244 2.095-.258 1.635-1.485 1.933-2.666 2.035l.44-1.6c.989-.199 1.214-1.254.274-1.512-.12-.069-.644-.08-.776-.088l.062-1.6c.192 0 .54-.006.715-.044.744 0 1.174-.85.766-1.256-.3-.3-.82-.3-1.673-.3l.192-1.6zm-1.39 0h1.39l-.193 1.6-.288 1.6h.48l-.062 1.6-.721.007-.351 1.593h1.575l-.44 1.6H24" fill="#fff"/></svg>