<svg xmlns="http://www.w3.org/2000/svg" width="56" height="56" viewBox="0 0 56 56"><path fill="#F0F3FA" d="M0 0h56v56H0z"/><path d="M46 19.68l-13.93-5.43-3.33 7.96.9 2.08c.56-.3 1.97-.96 3.1-1.17 1.12-.22 1.9.08 2.15.26a2.1 2.1 0 0 1 1.44.9l-1.44.2-1.84 2c6.13.39 7.54 4.44 7.47 6.41L46 19.7z" fill="#0095D6"/><path d="M21.66 13l-8.33 3.81c.94.9 2.34 1.16 2.93 1.17h8.1L21.66 13z" fill="#F03D29"/><path d="M27.2 46l-10.5-9.4 2.16-2.6c.8 1.87 5.13 1.99 7.2 1.82l1.54-4.15c4.36-1.1 7.37 2.83 8.34 4.93L27.2 46z" fill="#97CA3D"/><path d="M15.13 31.38L10 21.3l6.34.99c5.5 1.05 6.8 4.03 6.77 5.4l-7.98 3.7z" fill="#F03D29"/></svg>