<svg width="56" height="56" xmlns="http://www.w3.org/2000/svg"><path fill="#ED3338" d="M0 0h56v56H0z"/><path d="M11 28c0-7.733 7.61-14 17-14s17 6.267 17 14c0 7.732-7.61 14-17 14s-17-6.268-17-14z" fill="#1F4578"/><path d="M26 19l4-2v20l-4 2V19z" fill="#ED3338"/><path d="M28.28 31.246c-1.716 1.98-3.375 4.005-6.483 4.005-4.39 0-6.469-4.064-6.469-7.461 0-3.264 1.626-7.128 5.9-7.128 1.856 0 3.71 1.19 4.772 2.338l-.003 2.771c-.888-.573-2.946-1.239-4.247-1.259-2.711-.044-5.102 1.081-5.06 3.644.028 1.765 1.853 2.965 3.67 2.965 2.782 0 4.467-2.434 5.876-4.281.393-.482 1.502-1.902 1.674-2.129 1.565-2.093 3.376-4.005 6.483-4.005 3.66 0 5.714 2.385 6.296 5.294h-1.65c-.665-.943-1.943-1.08-3.204-1.08-2.876 0-4.593 2.533-6.03 4.398 0 0-1.12 1.461-1.525 1.928zM40.784 29c-.37 2.925-2.083 6.288-5.824 6.295-2.183.004-3.778-1.515-4.96-3.267V30c1.48.703 2.749 1.542 4.426 1.567 2.065.029 3.932-1.143 4.704-2.567h1.654z" fill="#fff"/></svg>