<svg width="56" height="56" xmlns="http://www.w3.org/2000/svg"><path fill="#FFF200" d="M0 0h56v56H0z"/><path d="M14.376 30v6h.95v-2.467h2.248v-.957h-2.248v-1.618h2.368V30h-3.318zm3.566 6h.95v-6h-.95v6zm5.065-6v3.455l.008.772.01.387.011.388h-.033l-.191-.493-.192-.488a38.81 38.81 0 00-.398-.98L20.918 30h-1.61v6h.95v-3.442l-.007-.787-.012-.39-.015-.396h.037l.159.431.16.43c.153.41.264.697.335.861L22.346 36h1.612v-6h-.951zm2.864 0l-1.666 6h1.006l.312-1.151h2.162l.32 1.151h.986L27.3 30h-1.43zm.727.883l.866 3.126h-1.717l.85-3.126zM32.967 30v5.002h-.033l-.191-.493-.191-.488c-.15-.384-.285-.71-.4-.98L30.849 30h-1.611v6h.918v-5.015h.036l.159.431.16.43c.152.41.264.697.334.861L32.277 36h1.611v-6h-.921zm1.671.46c-.31.306-.463.947-.463 1.921 0 1.652.113 2.67.341 3.05.228.38.837.569 1.825.569.87 0 1.434-.12 1.688-.362.254-.24.382-.77.382-1.59v-.203h-.953l.005.264c0 .391-.07.645-.21.76-.141.116-.448.172-.92.172-.582 0-.927-.104-1.033-.31-.107-.208-.16-.876-.16-2.006 0-.838.06-1.34.178-1.51.12-.17.474-.256 1.062-.256.44 0 .724.055.847.162.124.108.185.355.185.742v.15h.955l-.005-.133c0-.749-.12-1.249-.36-1.502-.238-.252-.716-.378-1.43-.378-.982 0-1.627.154-1.934.46zm4.021-.46v6h3.45v-.959h-2.498v-1.696h2.348v-.84H39.61v-1.547h2.478V30h-3.43z" fill="#1F1A17"/><path d="M26.001 23.87a.874.874 0 00-.854-.87H22.88c-.161 0-.241.084-.326.216-.005.005-.548.784-.548.784h2.624c.208.01.373.225.373.446V27h.998v-3.13zm-5-1.87h1v5h-1v-5zm12.137 1h-4.137v4h1v-3h2.595c.227 0 .405.22.405.446V27h1.003v-3.14a.863.863 0 00-.866-.86zm-20.14-1H6v5h1v-4h2.26c.148 0 .24.086.24.221V27h1v-3.765c0-.14.132-.235.28-.235h1.813c.222 0 .404.149.404.352V27h1.004v-4.08c0-.51-.448-.92-1.004-.92zm14.003 2.527V27h1v-3.622s-.463.383-.79.658a.65.65 0 00-.21.49zm0-2.527h1v.923l-1 .883V22zm14.617 1c-.374 0-.617.28-.617.58V27h1v-2.55c0-.226.197-.451.435-.451h1.594a.48.48 0 00.385-.193C44.42 23.802 45 23 45 23h-3.383zm-2.617-1v4.004h-2.758c-.14 0-.238-.117-.238-.216v-1.432h.005c0-.207.172-.356.387-.356h1.752a.485.485 0 00.368-.203L39 23h-3.185a.829.829 0 00-.815.82v2.522c0 .424.35.658.67.658H40v-5h-1zm10.181 1h-3.203a.478.478 0 00-.393.207l-.538.793h3.594c.201.01.36.23.36.446V26h-3v-.366c0-.088.048-.134.132-.134h1.87v-.72c0-.144-.084-.28-.201-.28H45.52c-.29 0-.52.299-.52.599v1.497c0 .01 0 .015.005.025.033.216.21.379.426.379H50v-3.14c0-.476-.365-.86-.82-.86zm-30 0H15.98a.469.469 0 00-.389.207l-.543.793h3.585c.201.01.365.23.365.446V26h-2.997v-.343c0-.088.049-.162.133-.162h1.867v-.791c0-.143-.076-.204-.193-.204h-2.287c-.29 0-.52.223-.52.523v1.573c0 .01 0 .015.005.025.033.216.21.379.426.379h4.57v-3.14c0-.476-.366-.86-.82-.86z" fill="#E9372F"/></svg>