<svg width="56" height="56" viewBox="0 0 56 56" xmlns="http://www.w3.org/2000/svg"><path fill="#FFF500" d="M0 0h56v56H0z"/><path fill-rule="evenodd" d="M20 45h4V25.47c0-1.34 1.26-3.47 4-3.47 3.43 0 4 2.98 4 4.29 0 1.3-.4 3.15-3 4.71v-5h-3v14c0 1.99 1.71 5 5.1 5 4.25 0 4.9-3.7 4.9-4.83 0-2.5-1.22-5.1-5.3-5.1 1.82-.85 5.3-4.61 5.3-9.07a7.5 7.5 0 0 0-5.03-7.21c.65-.24 2.22-1.27 3.24-3.46s2.95-2.46 3.79-2.32v-4c-1.7-.04-5.49.8-7.03 4.42-1.55 3.62-3.9 3.88-4.97 3.56v1.52c-2.6 0-5.98 3.5-5.98 7.2v3.87c.02 4.78.03 11.7-.02 15.42Zm11-3a2 2 0 1 0 0-4 2 2 0 0 0 0 4Z" fill="#960419"/></svg>