<svg width="56" height="56" xmlns="http://www.w3.org/2000/svg"><path fill="#304087" d="M0 0h56v56H0z"/><path d="M23 19.787V11h-6v19.433c0-4.784 2.503-8.299 6-10.646zM30 18v6c2.827 0 5.985 2.903 6 6.425.015 3.522-2.782 6.575-6 6.575s-7-1.907-7-6.575v10.733C24.987 42.353 27.034 43 30 43c6.136 0 12-5.261 12-12.567C42 23.517 36.318 18 30 18z" fill="#fff"/><path d="M23.373 19.573C19.495 21.808 17 25.65 17 30.433V45h6V30.425C23 27.1 25.982 24 29 24v-6c-2.066.123-3.938.595-5.627 1.573z" fill="#FF464B"/></svg>