<svg width="56" height="56" xmlns="http://www.w3.org/2000/svg"><path fill="#FFCB0A" d="M0 0h56v56H0z"/><path d="M31.5 39.856c0-.962-.166-.811.661-1.2.867-.409.88 1.41 1.037 2.228-.29-.007-.987-.52-1.307-.705-.39-.227-.39-.126-.39-.323zm-7.767-1.86l.039-.074.538-.014.105.899-.618.039-.064-.85zm9.403-1.434l1.394-.055.58 4.686c-.689.156-.767.1-1.388-.067l-.586-4.564zm1.94-.095l5.734-.432.536 4.347-5.595.79-.674-4.705zm-.378-1.552c-.438-.023-.406-.24-.406-.597 0-.662.515-1.456 1.168-1.456.249 0 .25.052.428.121.163.062.252.037.435.094.174.052.225.124.343.178.154.067.241.02.419.108.357.178-.126.016.712.343 1.125.436-.212 2.246-.813 1.713l-.137-.144c-1.413 1.197-.925-.366-1.222-.927-.131-.255-.396-.342-.516-.007-.103.3-.105.47-.41.574zm-9.275-10.3c.348-.19.84.11 1.188.268.408.183.794.258 1.2.42.15.53-.497 1.247-.802 1.467-.32.228-.354.118-.549-.064-.527-.491-1.264-1.3-1.037-2.091zm6.664.343c-.17.571-.62 1.335-.929 1.715-.517.643-1.214-.057-1.587-.547-.906-1.179-.224-.811 1.761-1.43.279-.081.936-.335.755.262zm-3.692-1.765c-.335 0-.58-.243-.742-.405-.195-.2-.426-.55.121-.55.46 0 1.648-.04 2.028.021.11.52-.49.934-1.027.934h-.38zm3.2-5.898c-.002 1.107-.979-.189-1.733.822-.094.124-.325.406-.357.577.495.136.739-.522 1.18-.577.216-.027 1.407.21 1.522.305.462.371.114 2.47.07 3.146-.066.929.122 2.118-.187 2.502-.154.192-.362.172-.682.229-.589.11-2.663.591-3.06.582-.672-.016-2.27-.568-2.753-.852-.994-.593-.575-1.712-.463-2.825.122-1.25-.593-3.272.282-3.81.203-.12.547-.217.68-.02.295.443-.605.988-.264 1.318.31.316.32-.426.943-.444.45-.02.724.272.914.637.208.387.126.897.108 1.39-.021.855-.167.867.265 1.174v.323c-.352.162-.424.316-1.08-.028a3.297 3.297 0 01-.444-.275c-.234-.187-.234-.313-.472-.268-.252.394.204.248.975 1.388.616.92 1.733 1.18 2.617.673.27-.156.42-.375.591-.65 1.11-1.76.76-.818 1.193-1.331-.065-.213-.13-.293-.37-.327-.194.103-.233.29-.377.478-.092.127-1.339 1.031-1.692.234.152-.28.563-.387.35-.707-.323-.002-.794.476-1.156-.003-.364-.476.435-1.499-.357-2.603-.384-.54-.662-.567-.804-.773-.14-.195-.048-.43.097-.527.323-.213.698.183 1.392.012.322-.076.282-.236.593-.142.897.283 1.296-.241 2.019.041.288.121.25.185.46.33zM17.22 13.976c0-.272.144-.344.382-.286.052.787.666 1.6.018 1.38-.36-.124-.4-.778-.4-1.094zm2.15.97c.213.216.176.536.476.847l.494.507c.144.139-.023.08.176.1.334-.487-.432-.373-.432-.99 0-.559.151-.562.655-.775-.128-.217-.367-.398-.422-.758-.084-.538.36-.533.646-.299.247.194.744 1.117.744 1.593 0 .641-.27 1.103-.593 1.413-.593.563-1.188.242-1.507.162-.22.218-.59.453-1.044.23-.665-.319-.847-1.63-.274-1.784.21-.055.378-.044.574-.092.225-.055.266-.169.507-.154zm.762-3.598c0-.309.197-.284.478-.225.225.419.47 1.378.477 1.953l-.715-.183c-.073-.563-.24-.904-.24-1.545zm-.572 1.243l.276.01c.037.41-.034.76.017 1.178.052.42.281.588.079.9-.405.032-.599-.467-.7-.806-.158-.532-.076-.89.162-1.232-.338.103-.494.28-.723.476.059.97.309 1.092.412 1.54-.146.054-.325.228-.55.157-.136-.04-.278-.229-.341-.374-.178-.443-.118-.803-.015-1.226-.18.041-.268.06-.394.176-.21.197-.07.183-.415.208-1.208.082-.796 2.005-.098 2.193 0 .385-.158.426.15 1.14.056.133.157.296.232.435.083.138.193.289.286.428-.093.14-.181.2-.302.323-.16.16-.146.21-.085.444l.795 2.979c.387 1.356.689 2.782.879 4.185.632 4.68.683 3.045-.107 7.77-.046.27-.17.825-.175 1.11-.022.48-.2 1.26-.285 1.77-.064.393-.177.486.14.663.242.139.464.212.738.315.902.34 2.982.749 3.28.882l.16 1.12c-.37.043-2.55.613-3.076.744-.263.066-.515.132-.77.189-.301.076-.528.047-.583.385-.125.792.724.522 1.257.47 1.154-.112 2.262-.227 3.458-.346.586-.06 1.183-.124 1.746-.181.545-.052 1.202-.16 1.74-.163.216-.421.128-1.329.651-1.37.496-.033.506.427.776 1.236.101.3.375 1.31.494 1.517.092.163.37.17.731.273l3.967 1.042c.486.12 1.12.33 1.608.394.826.105.72-.484.588-1.063l6.456-.952-.751-5.9-2.76.28c.118-.624.176-.601.107-1.308.268-.401.163-.175.254-.893.108-.866.295-2.315.32-3.114.007-.313.081-.748.094-1.051.016-.386.016-.712.05-1.096.07-.89.154-1.34-.288-1.919-.302-.392-1.595-.866-2.244-1.188-.134-.07-.252-.103-.4-.177-.15-.071-.227-.121-.385-.185l-2.75-1.262c-.144-.07-.256-.153-.432-.19 0-.57.046-.91.511-1.355.087-.078.72-.307.567-1.247-.181-1.068-.632-.7-.416-1.374.068-.213.212-.408.354-.552.188-.19.282-.29.403-.552.081-.165.177-.5.154-.742-.028-.322-.1-.48-.27-.69-.29-.345-.578-.68-1.156-.68-.703 0-.782.413-1.195-.406-.37-.745-1.56-1.179-2.368-1.354-1.21-.26-2.821-.201-3.858.525-.332.23-1.207 1.092-1.413 1.403-.412.618-.487 1.509-.28 2.285.074.263.189.433.246.708.12.595-.013.657-.416.908a.565.565 0 01-.364.113c-.78-1.475-.914-2.203-1.448-3.277-.285-.565.362-.984-.013-2.474l-.591-2.272c-.107-.39-.277-1.062-.556-1.353-.15-.153-.552-.192-.763-.064-.382.236-.402.91-.402 1.514z" fill="#000"/><path d="M26.247 19.802c0-.343.451-.546.735-.31.272.239.094.716-.26.716-.282 0-.475-.176-.475-.406zm4.08-.478c.513-.261.806.55.336.746a.427.427 0 01-.565-.212c-.119-.27.034-.435.23-.534zm-3.79 2.145c.145.106.27.184.443.275.654.344.728.19 1.08.028v-.323c-.432-.307-.286-.32-.265-1.173.018-.494.1-1.003-.108-1.39-.192-.366-.465-.657-.914-.638-.624.018-.633.762-.943.444-.341-.329.559-.874.264-1.317-.131-.198-.477-.102-.68.019-.875.538-.16 2.559-.282 3.81-.11 1.113-.53 2.232.463 2.825.483.284 2.081.836 2.753.852.397.01 2.471-.472 3.06-.582.32-.057.53-.037.682-.23.31-.383.12-1.572.187-2.5.044-.677.392-2.776-.07-3.147-.117-.096-1.306-.332-1.521-.305-.442.053-.686.713-1.18.577.03-.169.262-.451.356-.577.755-1.01 1.731.285 1.733-.822-.208-.146-.172-.21-.46-.327-.723-.284-1.122.24-2.019-.041-.31-.094-.271.066-.593.142-.694.169-1.069-.225-1.392-.012a.374.374 0 00-.097.527c.142.206.422.23.804.772.792 1.105-.007 2.127.357 2.603.362.48.832.002 1.156.004.215.32-.197.426-.35.706.355.798 1.6-.106 1.692-.234.144-.188.183-.373.376-.477.242.033.306.113.371.326-.433.512-.083-.428-1.193 1.332-.17.273-.321.493-.591.65-.884.507-2.003.246-2.617-.673-.77-1.142-1.227-.995-.975-1.389.238-.048.238.077.472.265zm9.214 19.703l5.595-.79-.536-4.349-5.733.434.674 4.705zM20.74 14.633c-.503.213-.656.217-.656.776 0 .616.765.502.432.989-.2-.018-.034.04-.176-.1l-.494-.507c-.3-.311-.262-.63-.476-.847-.24-.014-.282.1-.504.152-.195.049-.366.036-.573.093-.574.152-.39 1.465.273 1.784.455.224.824-.01 1.044-.23.32.08.915.4 1.508-.162.323-.31.593-.772.593-1.413 0-.476-.498-1.4-.744-1.593-.286-.235-.73-.24-.647.298.054.362.292.543.42.76zm13.958 20.282c.306-.102.31-.274.41-.574.121-.337.386-.248.517.007.297.563-.192 2.126 1.222.927l.136.144c.602.533 1.941-1.277.814-1.713-.84-.327-.357-.166-.712-.343-.178-.087-.265-.04-.42-.108-.117-.052-.168-.127-.342-.178-.183-.057-.272-.032-.435-.094-.178-.07-.18-.12-.428-.12-.655 0-1.168.793-1.168 1.455 0 .357-.032.574.406.597zm-.978 6.209c.621.167.7.223 1.388.067l-.58-4.685-1.394.055.586 4.563zm-1.633-16.166c.18-.597-.478-.341-.753-.261-1.985.616-2.669.248-1.762 1.429.373.49 1.071 1.191 1.588.547.307-.38.758-1.145.927-1.715zm-6.664-.343c-.225.792.51 1.6 1.036 2.09.195.183.229.291.548.064.306-.219.954-.938.803-1.467-.407-.161-.79-.238-1.2-.42-.348-.155-.84-.457-1.187-.267z" fill="#fff"/><path d="M31.5 39.856c0 .197 0 .096.39.323.32.185 1.019.698 1.306.705-.158-.819-.17-2.637-1.037-2.228-.825.389-.658.238-.658 1.2z" fill="#EBBE49"/><path d="M28.395 23.193h.38c.538 0 1.138-.414 1.027-.934-.38-.06-1.568-.021-2.028-.021-.547 0-.318.351-.12.55.163.162.407.405.741.405zm-8.263-11.845c0 .641.167.984.24 1.543l.715.183c-.005-.575-.252-1.534-.477-1.953-.281-.058-.478-.082-.478.227zm-.74 1.292c-.238.344-.32.702-.162 1.233.102.341.295.84.7.806.202-.31-.027-.48-.078-.9-.052-.417.021-.769-.018-1.177l-.275-.01-.167.049zm-1.215.574c-.103.423-.163.784.014 1.226.064.145.206.333.341.374.224.071.405-.103.55-.158-.102-.447-.353-.57-.411-1.54-.33 0-.29-.042-.494.098zm-.957.762c0 .316.04.97.4 1.094.646.22.034-.593-.018-1.38-.238-.058-.382.014-.382.286z" fill="#fff"/><path d="M26.247 19.802c0 .232.194.408.478.408.351 0 .529-.48.26-.716-.287-.24-.738-.035-.738.308zm4.08-.478c-.195.1-.35.265-.229.536a.43.43 0 00.565.211c.472-.197.177-1.006-.336-.747z" fill="#000"/><path d="M23.799 38.844l.616-.04-.103-.896-.54.014-.039.073.066.849z" fill="#EBBE49"/></svg>