<svg xmlns="http://www.w3.org/2000/svg" width="56" height="56"><path fill="#C4161C" d="M0 0h56v56H0z"/><path d="M26.24 10.24c-1.16-.28-3.06-.5-3.95.47-.3.31-.29.88-.29 1.39v1.55c.95-.79 2.05-1.41 3.14-2.02.2-.1.38-.22.57-.33l.32-.15c.27-.13.54-.25.68-.52 0-.2-.21-.29-.39-.35l-.08-.04zm4.82 1.47c-.94-.6-2.23-.96-3.28-.4-2.02 1.27-4.16 2.62-5.78 4.35v1.33a24.75 24.75 0 018.09-3.87c.45-.12.9-.31 1.22-.66.22-.26 0-.6-.25-.75zm1.44 1.13c.6-.2 1.25.03 1.71.4l.42.29c.22.14.43.28.62.45.23.2.4.55.2.82-.27.4-.76.53-1.21.67l-.19.05c-4.2 1.33-8.47 3-12.05 5.53v-1.3c1.94-2.14 4.44-3.75 7-5.14 1-.55 2.04-1.06 3.07-1.56l.43-.2zm5.18 2.94c-.44-.38-1.1-.36-1.62-.16a65.47 65.47 0 00-7.41 3.54c-2.43 1.4-4.86 3.02-6.65 5.15v1.18a32.07 32.07 0 015.63-3.25 72.84 72.84 0 0110.4-3.71c.4-.17.89-.36 1.07-.78.16-.35-.1-.7-.33-.96l-.48-.44-.61-.57zm1.09 3.36l.08-.04c.38-.17.78-.34 1.2-.25.55.12.93.58 1.17 1.04.08.15.18.3.27.44.26.4.53.82.5 1.32 0 .5-.4.9-.82 1.12-.85.45-1.83.6-2.78.73l-.12.02A39.99 39.99 0 0022 29.97v-1.36a30.95 30.95 0 016.59-4.88 60.91 60.91 0 0110.18-4.6zM34 27.07V25.7a39.42 39.42 0 01-16.33 6.59h-.04c-.93.14-1.9.29-2.74.72-.43.23-.86.61-.89 1.13-.03.54.25.99.54 1.44l.26.44c.27.52.76 1.05 1.4 1.04.32.02.6-.1.87-.23l.25-.1a61.24 61.24 0 009.6-4.36 31.28 31.28 0 007.08-5.3zm-5.57 6.5c1.93-.92 3.88-2 5.57-3.3v1.22a22.06 22.06 0 01-5.07 4.3 57.96 57.96 0 01-8.7 4.44c-.54.27-1.22.38-1.76.06-.18-.15-.35-.3-.52-.47l-.37-.35a2.68 2.68 0 01-.64-.74.72.72 0 01.16-.85c.4-.38.96-.54 1.48-.68a69.44 69.44 0 009.85-3.62zM34 34.82c-3.5 2.54-7.65 4.2-11.76 5.55l-.42.13c-.42.12-.83.24-1.15.55-.25.22-.24.63 0 .86.21.24.47.42.74.6l.43.3c.33.28.76.43 1.19.47.33.01.63-.14.9-.3a47.26 47.26 0 005.9-3.28A21.17 21.17 0 0034 36.14v-1.33zm-8.13 8.1c2.92-.8 5.73-2.17 8.13-3.97v1.35a25.6 25.6 0 01-4.87 3.88l-.37.24c-.33.23-.67.46-1.07.54-.67.17-1.38.04-2-.24l-.04-.02a2.15 2.15 0 01-.95-.63c-.15-.2-.04-.48.15-.62.3-.25.65-.42 1.02-.52zM34 44.67V42.4l-4.25 2.63c-.14.07-.25.17-.37.28l-.02.02v.06c0 .1 0 .21.1.26.3.2.63.23.97.27l.27.04c.76.07 1.54.1 2.27-.15.5-.17 1-.59 1.03-1.14z" fill="#fff"/></svg>