<svg width="56" height="56" viewBox="0 0 56 56" xmlns="http://www.w3.org/2000/svg"><path fill="#F0F3FA" d="M0 0h56v56H0z"/><path d="M44 28a15.96 15.96 0 0 1-9.88 14.78 15.97 15.97 0 0 1-20.9-8.66 15.97 15.97 0 0 1 8.66-20.9 15.97 15.97 0 0 1 20.9 8.66A15.97 15.97 0 0 1 44 28Z" fill="#EC7F24"/><path d="M26.9 19.44c1.06-.2 2.05-.2 2.96-.03 1.08.2 1.94.66 2.57 1.36a.19.19 0 0 0 .2.05 5.43 5.43 0 0 1 2.52-.33c.86.1 1.62.44 2.28 1.03.07.06.06.08-.04.05a5.36 5.36 0 0 0-2.79-.05 8.38 8.38 0 0 0-2.64 1.06c-.03.02-.06.01-.07-.03a3.7 3.7 0 0 0-2-2.22c-.8-.4-1.79-.68-2.98-.83-.13-.02-.13-.04 0-.06ZM27.9 25.37c.05.04.09.05.14.03 1.36-.5 2.55-.3 3.59.58.08.06.07.09-.04.06a4.72 4.72 0 0 0-2.07 0c-.66.14-1.3.4-1.94.77-.04.02-.06.01-.07-.03-.08-.36-.28-.7-.6-1.01-.28-.28-.61-.5-1-.69a7 7 0 0 0-2.14-.58v-.03h.01c.33-.05.66-.08 1-.1.44-.05.93 0 1.49.12.65.14 1.2.43 1.64.88Z" fill="#fff"/></svg>