<svg width="56" height="56" viewBox="0 0 56 56" xmlns="http://www.w3.org/2000/svg"><path fill="#004646" d="M0 0h56v56H0z"/><path d="M39 19.96c.09-4.11 2-4.94 2-4.94s-3.42-.12-4.17.24c-3.49 1.32-4.04 5.37-4.05 7.98 0-.39-.03-7.69-7.63-8.2L15 15.02s1.92.8 2 4.91v12.43c.25-2.78 1.13-6.07 4.02-9.86 2.48 3.24 3.72 6.12 4.18 8.62 1.76-1.52 4.2-2.8 7.56-3.57 0 0 .38 4.75-1.51 9.11 2.13-.57 4.38-.65 7.37.02.23-.82.33-1.68.38-2.57V19.96Z" fill="#008572"/><path d="M20.72 42.36c-.1-2.5.22-7.56 4.48-11.24-.46-2.5-1.7-5.38-4.18-8.62-2.9 3.79-3.77 7.08-4.02 9.86 0 0-.38 6.34 3.72 10Z" fill="#F58232"/><path d="M32.76 27.55c-3.36.77-5.8 2.05-7.56 3.57-4.26 3.68-4.59 8.74-4.48 11.23.11.12 1.78 1.25 1.78 1.25 1.31-2.2 4.05-5.68 8.75-6.94 1.89-4.36 1.5-9.1 1.5-9.1Z" fill="#FAA634"/><path d="M31.25 36.66c-4.7 1.26-7.44 4.74-8.75 6.94h.02c2.78 1.6 5.67 1.4 5.67 1.4 5.09-.01 9.09-3.51 10.43-8.32a14.69 14.69 0 0 0-7.37-.02Z" fill="#FDB933"/></svg>