<svg xmlns="http://www.w3.org/2000/svg" width="56" height="56"><path fill="#F0F3FA" d="M0 0h56v56H0z"/><path d="M31.3 24.42c-.41 1.43-.3.9-.9 3.23-.53 2.23-1.1 4.43-1.52 5.9a4.89 4.89 0 01-.5.83 6.88 6.88 0 01-.87.97c-1.83 1.65-4.57 2.62-6.94 2.24a4.14 4.14 0 01-.7-.14 4.58 4.58 0 01-3.02-2.06 5.76 5.76 0 01-.54-3.77c.02-.2.08-.45.15-.75.9-3.77 1.83-7.52 2.74-11.27.37-1.9-3.53-2.4-4.36.08l-2.5 10.16c-.06.31-.14.71-.2 1.13a10.2 10.2 0 001.06 6.62 8.67 8.67 0 005.7 4.08c.28.08.63.14 1.03.2 3.57.56 7.68-.83 10.36-3.27a11.66 11.66 0 001.47-1.6c.42-.6.79-1.23 1.08-1.91v-.02l.07-.22c.43-1.43 1-3.76 1.6-6.12.56-2.24.78-3.02 1.2-4.49.4-2-3.38-2.85-4.42.18z" fill="#ED1D24"/><path d="M24.68 31.65c.42-1.41.3-.88.89-3.25.56-2.21 1.12-4.45 1.52-5.9.13-.28.3-.58.52-.84.25-.36.54-.68.87-.98a8.89 8.89 0 016.94-2.27l.7.14a4.65 4.65 0 013.04 2.1c.58 1.01.76 2.33.54 3.78-.04.2-.07.44-.15.76-.97 3.99-1.93 7.96-2.88 11.95-.25 2.37 3.8 2.6 4.38-.06l2.6-10.85c.08-.34.16-.72.22-1.16.34-2.41.02-4.73-1.08-6.64a8.58 8.58 0 00-5.67-4.1c-.3-.07-.64-.15-1.06-.2-3.57-.57-7.68.85-10.36 3.28a10.39 10.39 0 00-1.47 1.62 8.65 8.65 0 00-1.06 1.91l-.1.24c-.4 1.42-1 3.8-1.57 6.14-.58 2.28-.78 3.06-1.2 4.51-.04 2.73 3.91 2.5 4.38-.18z" fill="#006CB7"/></svg>