<svg width="56" height="56" xmlns="http://www.w3.org/2000/svg"><path fill="#2B61AB" d="M0 0h56v56H0z"/><path d="M4 33h48v-9H4v9z" fill="#fff"/><path d="M8.324 31h1.209v-2.422L11.5 26h-1.29l-1.173 1.582L7.97 26H6.5l1.824 2.628V31zM12 31h3v-1h-2v-1h1.707v-1H13v-1h2v-1h-3v5zM16.149 29.588l.1 1.31c.252.077.488.134.712.175.222.04.43.06.626.06.58-.01 1.03-.16 1.351-.454.322-.295.484-.676.49-1.147-.007-.382-.125-.688-.353-.916a3.53 3.53 0 00-.902-.625l-.593-.318a.79.79 0 01-.262-.207.381.381 0 01-.088-.237.347.347 0 01.148-.29c.095-.069.23-.105.402-.106.137 0 .313.036.526.11.213.075.424.193.694.355v-1.15a5.096 5.096 0 00-.648-.184 2.895 2.895 0 00-.6-.066c-.506.007-.905.137-1.198.387-.293.25-.441.572-.448.965 0 .29.079.55.239.781.16.23.405.437.737.62l.342.187c.26.14.465.26.613.366.15.107.225.241.229.404a.414.414 0 01-.184.341c-.12.088-.289.136-.508.138a1.97 1.97 0 01-.704-.135 4.723 4.723 0 01-.721-.364zM39 30.993h1v-2.79l2.912 2.953H43v-5.163h-1v2.856l-2.912-3.019H39v5.163zM44.5 31h1v-2.337L47.651 31h1.258l-2.461-2.599L48.666 26h-1.143L45.5 28.232V26h-1v5z" fill="#2B61AB"/><path d="M31.79 17L20.726 37l-3.797-4h2.618L31.79 17z" fill="#fff"/><path d="M30.407 19.148L20.65 36.43l-2.884-2.907h1.953l10.687-14.374z" fill="#D71C23"/><path fill-rule="evenodd" d="M34.941 29.005l.559-1.273.558 1.273h-1.117zM33.907 31l.475-1h2.208l.467 1H38l-2.42-5.17h-.073L33 31h.907zM30 28.077v-1.413h.34c.328-.003.573.05.735.156.162.108.242.28.242.515a.663.663 0 01-.246.54c-.162.131-.394.198-.696.202H30zm0 2.223v-1.56h.476c.31 0 .546.07.706.2.161.133.241.32.243.563-.001.256-.084.453-.247.59-.163.137-.391.207-.692.208L30 30.3zm-1 .7v-5h1.506c.412 0 .92.066 1.259.326.28.215.42.53.42.944.002.252-.064.467-.195.644-.13.178-.332.317-.602.416.29.073.515.215.673.424.157.208.237.471.238.785 0 .489-.16.855-.481 1.098-.322.242-.804.363-1.45.362h-1.367L29 31z" fill="#2B61AB"/></svg>